<?xml version="1.0" encoding="UTF-8"?>
<!DOCTYPE svg PUBLIC "-//W3C//DTD SVG 1.1//EN" "http://www.w3.org/Graphics/SVG/1.1/DTD/svg11.dtd">
<svg xmlns="http://www.w3.org/2000/svg" version="1.1" width="263px" height="180px" style="shape-rendering:geometricPrecision; text-rendering:geometricPrecision; image-rendering:optimizeQuality; fill-rule:evenodd; clip-rule:evenodd" xmlns:xlink="http://www.w3.org/1999/xlink">
<g><path style="opacity:1" fill="#f6f6e8" d="M 114.5,-0.5 C 139.833,-0.5 165.167,-0.5 190.5,-0.5C 188.868,2.13338 186.868,4.46671 184.5,6.5C 187.076,7.8834 186.742,8.71673 183.5,9C 189.022,10.6168 194.355,12.6168 199.5,15C 210.118,15.6863 220.618,17.1863 231,19.5C 237.134,19.0933 243.3,18.9267 249.5,19C 250.973,18.2904 251.64,17.1238 251.5,15.5C 252.833,15.5 254.167,15.5 255.5,15.5C 255.47,23.0939 256.97,23.4273 260,16.5C 260.671,15.7476 261.504,15.4142 262.5,15.5C 262.5,21.1667 262.5,26.8333 262.5,32.5C 261.527,34.9479 261.194,37.6146 261.5,40.5C 259.5,40.5 257.5,40.5 255.5,40.5C 255.346,45.0149 255.346,49.3482 255.5,53.5C 255.062,54.5063 254.396,54.5063 253.5,53.5C 251.078,55.2855 251.078,56.9522 253.5,58.5C 251.19,62.8534 249.69,67.52 249,72.5C 245.645,75.9291 244.478,79.9291 245.5,84.5C 240.705,86.5817 238.705,90.2484 239.5,95.5C 238.833,95.5 238.167,95.5 237.5,95.5C 238.216,90.0167 239.55,84.6834 241.5,79.5C 242.338,79.1583 242.672,78.4916 242.5,77.5C 246.702,64.8946 250.702,52.2279 254.5,39.5C 255.434,38.4324 255.768,37.099 255.5,35.5C 257.385,33.2046 257.885,30.538 257,27.5C 256.097,26.2986 254.931,25.4652 253.5,25C 223.933,20.0959 194.267,15.9292 164.5,12.5C 152.343,10.1392 140.009,7.97256 127.5,6C 123.413,5.23752 119.413,5.40419 115.5,6.5C 115.167,5.83333 114.833,5.16667 114.5,4.5C 115.071,2.63998 115.071,0.973309 114.5,-0.5 Z"/></g>
<g><path style="opacity:1" fill="#fcfbe4" d="M 190.5,-0.5 C 190.833,-0.5 191.167,-0.5 191.5,-0.5C 191.5,1.5 191.5,3.5 191.5,5.5C 202.167,5.5 212.833,5.5 223.5,5.5C 223.5,6.83333 223.5,8.16667 223.5,9.5C 231.732,10.4353 239.899,10.7686 248,10.5C 250.112,9.77737 252.112,8.77737 254,7.5C 256.595,9.14584 259.428,9.81251 262.5,9.5C 262.5,11.5 262.5,13.5 262.5,15.5C 261.504,15.4142 260.671,15.7476 260,16.5C 256.97,23.4273 255.47,23.0939 255.5,15.5C 254.167,15.5 252.833,15.5 251.5,15.5C 251.64,17.1238 250.973,18.2904 249.5,19C 243.3,18.9267 237.134,19.0933 231,19.5C 220.618,17.1863 210.118,15.6863 199.5,15C 194.355,12.6168 189.022,10.6168 183.5,9C 186.742,8.71673 187.076,7.8834 184.5,6.5C 186.868,4.46671 188.868,2.13338 190.5,-0.5 Z"/></g>
<g><path style="opacity:1" fill="#fcf6e0" d="M 191.5,-0.5 C 215.167,-0.5 238.833,-0.5 262.5,-0.5C 262.5,2.83333 262.5,6.16667 262.5,9.5C 259.428,9.81251 256.595,9.14584 254,7.5C 252.112,8.77737 250.112,9.77737 248,10.5C 239.899,10.7686 231.732,10.4353 223.5,9.5C 223.5,8.16667 223.5,6.83333 223.5,5.5C 212.833,5.5 202.167,5.5 191.5,5.5C 191.5,3.5 191.5,1.5 191.5,-0.5 Z"/></g>
<g><path style="opacity:1" fill="#393235" d="M 3.5,-0.5 C 13.1667,-0.5 22.8333,-0.5 32.5,-0.5C 32.954,2.13983 34.1207,4.47317 36,6.5C 36.3333,5.83333 36.6667,5.16667 37,4.5C 38.0487,6.38438 39.5487,7.71771 41.5,8.5C 41.5,10.8333 41.5,13.1667 41.5,15.5C 40.2717,20.6598 39.6051,20.6598 39.5,15.5C 38.5,15.5 37.5,15.5 36.5,15.5C 36.7989,17.604 36.4656,19.604 35.5,21.5C 34.1432,18.473 34.4765,15.6397 36.5,13C 34.8446,11.5557 34.178,9.72241 34.5,7.5C 33.5,7.5 32.5,7.5 31.5,7.5C 32.5525,15.5341 32.5525,23.5341 31.5,31.5C 30.6721,25.3466 30.1721,19.0133 30,12.5C 27.5581,11.1238 26.7247,9.29042 27.5,7C 26.5509,6.38277 25.7175,6.54943 25,7.5C 24.8184,10.2263 24.3184,12.8929 23.5,15.5C 23.1667,13.5 22.8333,11.5 22.5,9.5C 20.4775,11.1733 18.1441,11.8399 15.5,11.5C 15.5,12.8333 15.5,14.1667 15.5,15.5C 14.1667,15.5 12.8333,15.5 11.5,15.5C 10.5,15.5 9.5,15.5 8.5,15.5C 8.66501,12.1501 8.49834,8.81677 8,5.5C 6.61223,3.29764 5.11223,1.29764 3.5,-0.5 Z"/></g>
<g><path style="opacity:1" fill="#f9f6df" d="M 76.5,-0.5 C 89.1667,-0.5 101.833,-0.5 114.5,-0.5C 115.071,0.973309 115.071,2.63998 114.5,4.5C 113.778,4.91753 113.278,5.5842 113,6.5C 112.667,6.16667 112.333,5.83333 112,5.5C 111.502,8.81677 111.335,12.1501 111.5,15.5C 106.167,15.5 100.833,15.5 95.5,15.5C 95.666,20.8437 95.4994,26.1771 95,31.5C 94.6667,30.5 94.3333,29.5 94,28.5C 93.7679,29.7375 93.2679,30.7375 92.5,31.5C 91.8383,26.5121 89.8383,22.1788 86.5,18.5C 85.0193,14.6707 83.8527,10.6707 83,6.5C 80.6278,4.29681 78.4611,1.96348 76.5,-0.5 Z"/></g>
<g><path style="opacity:1" fill="#161c23" d="M 164.5,12.5 C 161.057,12.3532 159.057,14.0199 158.5,17.5C 153.675,16.132 149.009,14.4654 144.5,12.5C 143.833,13.1667 143.167,13.8333 142.5,14.5C 141.663,12.4947 140.163,11.4947 138,11.5C 133.717,11.3867 129.383,11.3867 125,11.5C 123.16,9.83002 121.326,8.16335 119.5,6.5C 118.522,6.97665 117.689,7.64332 117,8.5C 116.302,11.0037 115.469,13.337 114.5,15.5C 114.264,12.3915 114.597,9.39147 115.5,6.5C 119.413,5.40419 123.413,5.23752 127.5,6C 140.009,7.97256 152.343,10.1392 164.5,12.5 Z"/></g>
<g><path style="opacity:1" fill="#11182a" d="M 164.5,12.5 C 165.609,13.29 166.942,13.79 168.5,14C 165.057,14.2213 164.724,15.2213 167.5,17C 165.509,17.3736 163.842,18.207 162.5,19.5C 160.5,19.5 158.5,19.5 156.5,19.5C 145.938,16.8337 135.104,14.8337 124,13.5C 122.319,13.6083 121.152,14.2749 120.5,15.5C 119.833,15.5 119.167,15.5 118.5,15.5C 118.44,14.9569 118.107,14.6236 117.5,14.5C 115.645,18.9552 114.645,23.6219 114.5,28.5C 114.5,29.1667 114.5,29.8333 114.5,30.5C 113.596,29.791 113.263,28.791 113.5,27.5C 113.395,23.4517 113.728,19.4517 114.5,15.5C 115.469,13.337 116.302,11.0037 117,8.5C 117.689,7.64332 118.522,6.97665 119.5,6.5C 121.326,8.16335 123.16,9.83002 125,11.5C 129.383,11.3867 133.717,11.3867 138,11.5C 140.163,11.4947 141.663,12.4947 142.5,14.5C 143.167,13.8333 143.833,13.1667 144.5,12.5C 149.009,14.4654 153.675,16.132 158.5,17.5C 159.057,14.0199 161.057,12.3532 164.5,12.5 Z"/></g>
<g><path style="opacity:1" fill="#fbfbe9" d="M 114.5,4.5 C 114.833,5.16667 115.167,5.83333 115.5,6.5C 114.597,9.39147 114.264,12.3915 114.5,15.5C 113.728,19.4517 113.395,23.4517 113.5,27.5C 112.617,34.0016 111.951,40.6683 111.5,47.5C 110.321,59.1405 109.321,70.8072 108.5,82.5C 108.5,83.1667 108.5,83.8333 108.5,84.5C 107.549,86.118 106.216,87.4513 104.5,88.5C 104.833,89.5 105.5,90.1667 106.5,90.5C 107.696,90.1543 107.696,89.6543 106.5,89C 107.167,88.3333 107.833,88.3333 108.5,89C 108.164,90.629 108.83,92.129 110.5,93.5C 109.209,93.2627 108.209,93.596 107.5,94.5C 104.808,97.1422 101.475,98.1422 97.5,97.5C 97.8195,92.6367 97.4861,87.97 96.5,83.5C 96.3215,80.7835 95.8215,78.1168 95,75.5C 93.1339,73.4809 91.9673,71.1476 91.5,68.5C 92.1667,65.1667 92.8333,61.8333 93.5,58.5C 93.4008,56.2014 92.7342,54.2014 91.5,52.5C 91.9991,45.5097 92.3325,38.5097 92.5,31.5C 93.2679,30.7375 93.7679,29.7375 94,28.5C 94.3333,29.5 94.6667,30.5 95,31.5C 95.4994,26.1771 95.666,20.8437 95.5,15.5C 100.833,15.5 106.167,15.5 111.5,15.5C 111.335,12.1501 111.502,8.81677 112,5.5C 112.333,5.83333 112.667,6.16667 113,6.5C 113.278,5.5842 113.778,4.91753 114.5,4.5 Z"/></g>
<g><path style="opacity:1" fill="#48413c" d="M 32.5,-0.5 C 47.1667,-0.5 61.8333,-0.5 76.5,-0.5C 78.4611,1.96348 80.6278,4.29681 83,6.5C 83.8527,10.6707 85.0193,14.6707 86.5,18.5C 85.8826,18.3893 85.3826,18.056 85,17.5C 85.0464,19.3126 84.8797,20.9793 84.5,22.5C 83.2319,20.6957 82.5652,18.6957 82.5,16.5C 78.6893,16.4042 78.6893,15.7376 82.5,14.5C 81.5791,8.05427 80.2458,8.05427 78.5,14.5C 76.2186,10.4307 74.8853,10.7641 74.5,15.5C 68.6049,16.0542 62.9383,15.3876 57.5,13.5C 54.5106,15.0394 51.3439,16.0394 48,16.5C 46.3899,12.8263 44.8899,9.15966 43.5,5.5C 43.1667,5.16667 42.8333,4.83333 42.5,4.5C 41.5713,5.68884 41.238,7.02218 41.5,8.5C 39.5487,7.71771 38.0487,6.38438 37,4.5C 36.6667,5.16667 36.3333,5.83333 36,6.5C 34.1207,4.47317 32.954,2.13983 32.5,-0.5 Z"/></g>
<g><path style="opacity:1" fill="#352d2d" d="M 74.5,15.5 C 75.5,15.5 76.5,15.5 77.5,15.5C 78.2048,20.8907 78.2048,26.224 77.5,31.5C 72.9902,31.9053 68.3236,31.9053 63.5,31.5C 63.6621,29.4727 63.4955,27.4727 63,25.5C 61.1072,24.6734 58.9406,24.6734 56.5,25.5C 55.4763,24.1468 54.143,23.4802 52.5,23.5C 51.8333,24.1667 51.1667,24.8333 50.5,25.5C 49.9515,23.3129 48.7848,22.6462 47,23.5C 46.5026,20.854 46.3359,18.1873 46.5,15.5C 44.8333,15.5 43.1667,15.5 41.5,15.5C 41.5,13.1667 41.5,10.8333 41.5,8.5C 41.238,7.02218 41.5713,5.68884 42.5,4.5C 42.8333,4.83333 43.1667,5.16667 43.5,5.5C 44.8899,9.15966 46.3899,12.8263 48,16.5C 51.3439,16.0394 54.5106,15.0394 57.5,13.5C 62.9383,15.3876 68.6049,16.0542 74.5,15.5 Z"/></g>
<g><path style="opacity:1" fill="#0e0f18" d="M 164.5,12.5 C 194.267,15.9292 223.933,20.0959 253.5,25C 254.931,25.4652 256.097,26.2986 257,27.5C 257.885,30.538 257.385,33.2046 255.5,35.5C 255.5,33.1667 255.5,30.8333 255.5,28.5C 252.351,28.2114 249.351,28.7114 246.5,30C 246.833,30.3333 247.167,30.6667 247.5,31C 242.845,31.4992 238.179,31.6658 233.5,31.5C 215.184,28.5689 196.85,25.9023 178.5,23.5C 173.189,22.0747 167.856,20.7414 162.5,19.5C 163.842,18.207 165.509,17.3736 167.5,17C 164.724,15.2213 165.057,14.2213 168.5,14C 166.942,13.79 165.609,13.29 164.5,12.5 Z"/></g>
<g><path style="opacity:1" fill="#5a6988" d="M 156.5,19.5 C 149.928,19.8735 143.261,19.8735 136.5,19.5C 136.9,16.2391 135.733,15.5724 133,17.5C 128.849,16.6692 124.683,16.0026 120.5,15.5C 121.152,14.2749 122.319,13.6083 124,13.5C 135.104,14.8337 145.938,16.8337 156.5,19.5 Z"/></g>
<g><path style="opacity:1" fill="#6e88af" d="M 120.5,15.5 C 124.683,16.0026 128.849,16.6692 133,17.5C 135.733,15.5724 136.9,16.2391 136.5,19.5C 143.261,19.8735 149.928,19.8735 156.5,19.5C 158.5,19.5 160.5,19.5 162.5,19.5C 167.856,20.7414 173.189,22.0747 178.5,23.5C 177.508,23.3284 176.842,23.6618 176.5,24.5C 170.894,23.5931 165.227,23.2598 159.5,23.5C 159.719,22.325 159.386,21.325 158.5,20.5C 147.666,23.0987 137.166,22.432 127,18.5C 124.806,20.3889 124.306,22.5556 125.5,25C 123.805,27.2122 123.139,29.3789 123.5,31.5C 121.833,32.8333 120.167,34.1667 118.5,35.5C 119.073,28.8081 119.739,22.1414 120.5,15.5 Z"/></g>
<g><path style="opacity:1" fill="#7fa2d5" d="M 118.5,15.5 C 118.209,20.3786 116.876,24.7119 114.5,28.5C 114.645,23.6219 115.645,18.9552 117.5,14.5C 118.107,14.6236 118.44,14.9569 118.5,15.5 Z"/></g>
<g><path style="opacity:1" fill="#212027" d="M 31.5,41.5 C 32.3799,43.3888 32.3799,45.3888 31.5,47.5C 36.5146,47.85 41.348,47.1834 46,45.5C 47.0485,41.735 48.3819,38.0683 50,34.5C 50.498,31.5184 50.6646,28.5184 50.5,25.5C 51.1667,24.8333 51.8333,24.1667 52.5,23.5C 52.334,28.8437 52.5006,34.1771 53,39.5C 53.6667,36.1667 54.3333,32.8333 55,29.5C 55.6891,28.6433 56.5224,27.9767 57.5,27.5C 58.6548,30.4459 58.8214,33.4459 58,36.5C 55.1772,39.7831 54.3439,43.4498 55.5,47.5C 58.6919,44.882 60.0252,45.882 59.5,50.5C 61.1238,50.6399 62.2904,49.9733 63,48.5C 63.49,49.7932 63.6567,51.1266 63.5,52.5C 62.1667,52.5 60.8333,52.5 59.5,52.5C 59.719,53.675 59.3857,54.675 58.5,55.5C 57.5726,53.8872 56.7393,52.2205 56,50.5C 54.8393,57.1223 53.0059,63.789 50.5,70.5C 49.5313,71.3094 48.6979,72.3094 48,73.5C 47.8446,71.144 47.8446,68.8107 48,66.5C 47.2515,68.3325 46.2515,69.9991 45,71.5C 44.7879,68.6685 44.6213,66.0018 44.5,63.5C 42.623,68.1961 40.623,72.8628 38.5,77.5C 36.8473,80.9853 34.3473,83.6519 31,85.5C 30.5,85.1667 30,84.8333 29.5,84.5C 31.142,80.7063 33.142,77.2063 35.5,74C 36.7067,70.9825 36.7067,67.9825 35.5,65C 36.0223,64.0497 36.689,63.2164 37.5,62.5C 36.2634,61.7193 35.2634,60.7193 34.5,59.5C 35.7906,58.1752 37.1239,56.8419 38.5,55.5C 39.4113,59.1656 39.578,62.8323 39,66.5C 40.6782,62.7039 42.1782,58.8706 43.5,55C 41.9382,50.9197 40.4382,50.7531 39,54.5C 37.3963,53.3507 35.7297,53.3507 34,54.5C 32.779,53.7282 31.779,52.7282 31,51.5C 30.5774,52.9561 29.7441,53.4561 28.5,53C 27.9535,52.0754 27.2868,51.2421 26.5,50.5C 25.3482,52.3971 25.6815,54.0638 27.5,55.5C 27.8034,58.5876 26.4701,60.2542 23.5,60.5C 22.8018,64.8817 20.8018,65.8817 17.5,63.5C 16.6816,60.8929 16.1816,58.2263 16,55.5C 15.51,56.7932 15.3433,58.1266 15.5,59.5C 11.5,59.8333 11.5,60.1667 15.5,60.5C 15.5,61.5 15.5,62.5 15.5,63.5C 12.4816,63.6646 9.48162,63.498 6.5,63C 7.45057,62.2825 7.61723,61.4491 7,60.5C 4.72717,64.6553 3.5605,64.322 3.5,59.5C 2.16667,59.5 0.833333,59.5 -0.5,59.5C -0.5,58.5 -0.5,57.5 -0.5,56.5C 0.163485,54.9581 0.830151,53.2914 1.5,51.5C 2.42869,52.6888 2.76202,54.0222 2.5,55.5C 4.85684,55.6633 7.19018,55.4966 9.5,55C 10.5541,52.6178 11.2208,50.1178 11.5,47.5C 16.1103,47.4041 16.4436,46.4041 12.5,44.5C 11.353,41.3929 11.6863,38.3929 13.5,35.5C 14.7472,37.0064 14.7472,38.5064 13.5,40C 14.7014,40.9025 15.5348,42.0692 16,43.5C 16.4169,42.244 17.2502,41.5774 18.5,41.5C 18.687,43.5643 19.187,45.5643 20,47.5C 20.3333,47.1667 20.6667,46.8333 21,46.5C 21.4015,38.4772 22.0682,30.4772 23,22.5C 24.4618,24.9881 25.4618,27.6548 26,30.5C 28.3949,29.2018 29.5616,30.0351 29.5,33C 28.234,38.2579 27.0674,43.4245 26,48.5C 28.4578,46.5555 30.2911,44.2222 31.5,41.5 Z"/></g>
<g><path style="opacity:1" fill="#6787bd" d="M 176.5,24.5 C 172.504,25.5007 168.337,25.5007 164,24.5C 159.124,25.0751 154.291,25.9084 149.5,27C 152.022,28.3409 154.689,29.1743 157.5,29.5C 158.167,29.5 158.833,29.5 159.5,29.5C 159.209,30.6491 158.376,31.3158 157,31.5C 152.528,30.3915 148.028,29.8915 143.5,30C 146.101,30.9203 148.768,31.587 151.5,32C 150.167,32.3333 148.833,32.6667 147.5,33C 153.016,34.9629 158.683,36.1296 164.5,36.5C 181.733,40.7226 199.066,44.3893 216.5,47.5C 216.179,49.0481 215.179,49.7148 213.5,49.5C 213.167,49.5 212.833,49.5 212.5,49.5C 204.623,47.843 196.623,46.1764 188.5,44.5C 176.075,41.2613 163.408,38.5947 150.5,36.5C 149.5,36.5 148.5,36.5 147.5,36.5C 141.163,33.6419 134.496,32.6419 127.5,33.5C 129.167,34.1667 130.833,34.8333 132.5,35.5C 132,35.8333 131.5,36.1667 131,36.5C 128.567,35.5212 126.067,34.8545 123.5,34.5C 123.5,33.5 123.5,32.5 123.5,31.5C 123.139,29.3789 123.805,27.2122 125.5,25C 124.306,22.5556 124.806,20.3889 127,18.5C 137.166,22.432 147.666,23.0987 158.5,20.5C 159.386,21.325 159.719,22.325 159.5,23.5C 165.227,23.2598 170.894,23.5931 176.5,24.5 Z"/></g>
<g><path style="opacity:1" fill="#84abdf" d="M 178.5,23.5 C 196.85,25.9023 215.184,28.5689 233.5,31.5C 237.373,32.489 241.373,33.489 245.5,34.5C 244.67,37.0164 243.67,39.3498 242.5,41.5C 229.17,39.7531 215.837,37.4197 202.5,34.5C 202.082,33.7784 201.416,33.2784 200.5,33C 189.648,32.2774 178.981,30.6107 168.5,28C 165.5,27.3333 162.5,27.3333 159.5,28C 158.584,28.2784 157.918,28.7784 157.5,29.5C 154.689,29.1743 152.022,28.3409 149.5,27C 154.291,25.9084 159.124,25.0751 164,24.5C 168.337,25.5007 172.504,25.5007 176.5,24.5C 176.842,23.6618 177.508,23.3284 178.5,23.5 Z"/></g>
<g><path style="opacity:1" fill="#2b282f" d="M 31.5,31.5 C 32.4435,34.6678 32.4435,38.0012 31.5,41.5C 30.2911,44.2222 28.4578,46.5555 26,48.5C 27.0674,43.4245 28.234,38.2579 29.5,33C 29.5616,30.0351 28.3949,29.2018 26,30.5C 25.4618,27.6548 24.4618,24.9881 23,22.5C 22.0682,30.4772 21.4015,38.4772 21,46.5C 20.6667,46.8333 20.3333,47.1667 20,47.5C 19.187,45.5643 18.687,43.5643 18.5,41.5C 18.6602,39.8008 18.4935,38.1341 18,36.5C 17.3333,37.1667 16.6667,37.8333 16,38.5C 15.7221,34.8061 15.7221,31.1394 16,27.5C 13.9098,28.7908 12.5764,28.1242 12,25.5C 11.5017,22.1832 11.335,18.8499 11.5,15.5C 12.8333,15.5 14.1667,15.5 15.5,15.5C 15.5,14.1667 15.5,12.8333 15.5,11.5C 18.1441,11.8399 20.4775,11.1733 22.5,9.5C 22.8333,11.5 23.1667,13.5 23.5,15.5C 24.3184,12.8929 24.8184,10.2263 25,7.5C 25.7175,6.54943 26.5509,6.38277 27.5,7C 26.7247,9.29042 27.5581,11.1238 30,12.5C 30.1721,19.0133 30.6721,25.3466 31.5,31.5 Z"/></g>
<g><path style="opacity:1" fill="#fcfde9" d="M 262.5,32.5 C 262.5,60.1667 262.5,87.8333 262.5,115.5C 260.167,115.5 257.833,115.5 255.5,115.5C 255.5,114.167 255.5,112.833 255.5,111.5C 250.167,111.5 244.833,111.5 239.5,111.5C 239.5,106.167 239.5,100.833 239.5,95.5C 238.705,90.2484 240.705,86.5817 245.5,84.5C 244.478,79.9291 245.645,75.9291 249,72.5C 249.69,67.52 251.19,62.8534 253.5,58.5C 251.078,56.9522 251.078,55.2855 253.5,53.5C 254.396,54.5063 255.062,54.5063 255.5,53.5C 255.346,49.3482 255.346,45.0149 255.5,40.5C 257.5,40.5 259.5,40.5 261.5,40.5C 261.194,37.6146 261.527,34.9479 262.5,32.5 Z"/></g>
<g><path style="opacity:1" fill="#373231" d="M 86.5,18.5 C 89.8383,22.1788 91.8383,26.5121 92.5,31.5C 92.3325,38.5097 91.9991,45.5097 91.5,52.5C 91.0372,55.3303 90.3705,57.997 89.5,60.5C 89.3927,56.4649 89.7261,52.4649 90.5,48.5C 89.9324,46.6305 89.2657,44.7972 88.5,43C 90.0143,36.6128 89.3477,30.4461 86.5,24.5C 85.2234,27.0341 85.2234,29.5341 86.5,32C 85.451,32.4922 84.451,32.3256 83.5,31.5C 82.7475,38.3552 81.2475,45.0219 79,51.5C 78.7499,48.1498 77.9165,44.9831 76.5,42C 74.1489,42.1404 71.8155,42.6404 69.5,43.5C 69.5,44.8333 69.5,46.1667 69.5,47.5C 67.9519,47.1788 67.2852,46.1788 67.5,44.5C 66.1667,44.5 64.8333,44.5 63.5,44.5C 63.5,45.5 63.5,46.5 63.5,47.5C 59.9007,47.7381 59.5673,46.7381 62.5,44.5C 61.0613,42.6568 61.228,40.9901 63,39.5C 63.4974,36.854 63.6641,34.1873 63.5,31.5C 68.3236,31.9053 72.9902,31.9053 77.5,31.5C 78.2048,26.224 78.2048,20.8907 77.5,15.5C 76.5,15.5 75.5,15.5 74.5,15.5C 74.8853,10.7641 76.2186,10.4307 78.5,14.5C 80.2458,8.05427 81.5791,8.05427 82.5,14.5C 78.6893,15.7376 78.6893,16.4042 82.5,16.5C 82.5652,18.6957 83.2319,20.6957 84.5,22.5C 84.8797,20.9793 85.0464,19.3126 85,17.5C 85.3826,18.056 85.8826,18.3893 86.5,18.5 Z"/></g>
<g><path style="opacity:1" fill="#2d4d81" d="M 118.5,15.5 C 119.167,15.5 119.833,15.5 120.5,15.5C 119.739,22.1414 119.073,28.8081 118.5,35.5C 118.5,38.1667 118.5,40.8333 118.5,43.5C 118.167,43.5 117.833,43.5 117.5,43.5C 117.795,41.2646 117.461,39.2646 116.5,37.5C 116.073,34.9902 115.407,32.6568 114.5,30.5C 114.5,29.8333 114.5,29.1667 114.5,28.5C 116.876,24.7119 118.209,20.3786 118.5,15.5 Z"/></g>
<g><path style="opacity:1" fill="#799edb" d="M 159.5,29.5 C 168.742,31.8788 178.076,34.0455 187.5,36C 180.362,35.7906 173.362,35.2906 166.5,34.5C 165.478,34.8555 164.811,35.5222 164.5,36.5C 158.683,36.1296 153.016,34.9629 147.5,33C 148.833,32.6667 150.167,32.3333 151.5,32C 148.768,31.587 146.101,30.9203 143.5,30C 148.028,29.8915 152.528,30.3915 157,31.5C 158.376,31.3158 159.209,30.6491 159.5,29.5 Z"/></g>
<g><path style="opacity:1" fill="#86a9dd" d="M 123.5,31.5 C 123.5,32.5 123.5,33.5 123.5,34.5C 126.067,34.8545 128.567,35.5212 131,36.5C 131.5,36.1667 132,35.8333 132.5,35.5C 130.833,34.8333 129.167,34.1667 127.5,33.5C 134.496,32.6419 141.163,33.6419 147.5,36.5C 146.448,36.3505 145.448,36.5172 144.5,37C 145.938,37.2189 147.271,37.7189 148.5,38.5C 147.667,38.8333 146.833,39.1667 146,39.5C 143.521,39.151 141.021,38.9843 138.5,39C 138.833,39.3333 139.167,39.6667 139.5,40C 136.603,41.7155 135.269,44.2155 135.5,47.5C 140.421,47.1349 140.755,48.1349 136.5,50.5C 135.386,51.723 135.219,53.0563 136,54.5C 138.462,54.5414 140.962,54.208 143.5,53.5C 143.637,57.0743 143.304,60.4076 142.5,63.5C 139.969,62.9697 137.969,61.6363 136.5,59.5C 135.808,60.0253 135.308,60.6919 135,61.5C 134.311,60.6433 133.478,59.9767 132.5,59.5C 128.176,61.494 126.509,64.8273 127.5,69.5C 129.857,69.3367 132.19,69.5034 134.5,70C 133.944,70.3826 133.611,70.8826 133.5,71.5C 132.37,71.4685 131.037,71.8019 129.5,72.5C 128.808,73.0253 128.308,73.6919 128,74.5C 127.54,70.1488 125.04,68.1488 120.5,68.5C 120.719,69.675 120.386,70.675 119.5,71.5C 119.167,71.1667 118.833,70.8333 118.5,70.5C 118.702,62.546 119.369,54.546 120.5,46.5C 120.058,45.2613 119.391,44.2613 118.5,43.5C 118.5,40.8333 118.5,38.1667 118.5,35.5C 120.167,34.1667 121.833,32.8333 123.5,31.5 Z"/></g>
<g><path style="opacity:1" fill="#566f8c" d="M 113.5,27.5 C 113.263,28.791 113.596,29.791 114.5,30.5C 115.407,32.6568 116.073,34.9902 116.5,37.5C 115.867,42.2944 114.7,46.961 113,51.5C 112.79,49.9419 112.29,48.6085 111.5,47.5C 111.951,40.6683 112.617,34.0016 113.5,27.5 Z"/></g>
<g><path style="opacity:1" fill="#29272e" d="M -0.5,-0.5 C 0.833333,-0.5 2.16667,-0.5 3.5,-0.5C 5.11223,1.29764 6.61223,3.29764 8,5.5C 8.49834,8.81677 8.66501,12.1501 8.5,15.5C 9.5,15.5 10.5,15.5 11.5,15.5C 11.335,18.8499 11.5017,22.1832 12,25.5C 12.5764,28.1242 13.9098,28.7908 16,27.5C 15.7221,31.1394 15.7221,34.8061 16,38.5C 16.6667,37.8333 17.3333,37.1667 18,36.5C 18.4935,38.1341 18.6602,39.8008 18.5,41.5C 17.2502,41.5774 16.4169,42.244 16,43.5C 15.5348,42.0692 14.7014,40.9025 13.5,40C 14.7472,38.5064 14.7472,37.0064 13.5,35.5C 11.6863,38.3929 11.353,41.3929 12.5,44.5C 16.4436,46.4041 16.1103,47.4041 11.5,47.5C 11.2208,50.1178 10.5541,52.6178 9.5,55C 7.19018,55.4966 4.85684,55.6633 2.5,55.5C 2.76202,54.0222 2.42869,52.6888 1.5,51.5C 0.830151,53.2914 0.163485,54.9581 -0.5,56.5C -0.5,37.5 -0.5,18.5 -0.5,-0.5 Z"/></g>
<g><path style="opacity:1" fill="#2b282b" d="M 41.5,15.5 C 43.1667,15.5 44.8333,15.5 46.5,15.5C 46.3359,18.1873 46.5026,20.854 47,23.5C 48.7848,22.6462 49.9515,23.3129 50.5,25.5C 50.6646,28.5184 50.498,31.5184 50,34.5C 48.3819,38.0683 47.0485,41.735 46,45.5C 41.348,47.1834 36.5146,47.85 31.5,47.5C 32.3799,45.3888 32.3799,43.3888 31.5,41.5C 32.4435,38.0012 32.4435,34.6678 31.5,31.5C 32.5525,23.5341 32.5525,15.5341 31.5,7.5C 32.5,7.5 33.5,7.5 34.5,7.5C 34.178,9.72241 34.8446,11.5557 36.5,13C 34.4765,15.6397 34.1432,18.473 35.5,21.5C 36.4656,19.604 36.7989,17.604 36.5,15.5C 37.5,15.5 38.5,15.5 39.5,15.5C 39.6051,20.6598 40.2717,20.6598 41.5,15.5 Z"/></g>
<g><path style="opacity:1" fill="#8fb5ee" d="M 147.5,36.5 C 148.5,36.5 149.5,36.5 150.5,36.5C 151.429,38.4359 152.763,40.1026 154.5,41.5C 157.204,38.6084 157.871,38.9417 156.5,42.5C 156.634,44.2915 156.301,45.9582 155.5,47.5C 154.735,50.0961 154.401,52.7628 154.5,55.5C 154.5,56.5 154.5,57.5 154.5,58.5C 153.549,59.9187 153.216,61.5853 153.5,63.5C 152.5,63.5 151.5,63.5 150.5,63.5C 150.54,66.8806 150.207,70.2139 149.5,73.5C 147.533,73.2606 145.699,73.5939 144,74.5C 143.717,71.2577 142.883,70.9244 141.5,73.5C 138.803,72.8307 136.137,72.1641 133.5,71.5C 133.611,70.8826 133.944,70.3826 134.5,70C 132.19,69.5034 129.857,69.3367 127.5,69.5C 126.509,64.8273 128.176,61.494 132.5,59.5C 133.478,59.9767 134.311,60.6433 135,61.5C 135.308,60.6919 135.808,60.0253 136.5,59.5C 137.969,61.6363 139.969,62.9697 142.5,63.5C 142.694,65.9118 144.027,66.9118 146.5,66.5C 146.16,63.8559 146.827,61.5225 148.5,59.5C 147.689,58.7836 147.022,57.9503 146.5,57C 148.662,54.2144 149.329,51.2144 148.5,48C 146.866,47.5065 145.199,47.3398 143.5,47.5C 143.5,49.5 143.5,51.5 143.5,53.5C 140.962,54.208 138.462,54.5414 136,54.5C 135.219,53.0563 135.386,51.723 136.5,50.5C 140.755,48.1349 140.421,47.1349 135.5,47.5C 135.269,44.2155 136.603,41.7155 139.5,40C 139.167,39.6667 138.833,39.3333 138.5,39C 141.021,38.9843 143.521,39.151 146,39.5C 146.833,39.1667 147.667,38.8333 148.5,38.5C 147.271,37.7189 145.938,37.2189 144.5,37C 145.448,36.5172 146.448,36.3505 147.5,36.5 Z"/></g>
<g><path style="opacity:1" fill="#91bdf3" d="M 202.5,34.5 C 198.762,33.9209 195.096,33.9209 191.5,34.5C 202.407,37.6444 213.407,40.6444 224.5,43.5C 225.167,43.1667 225.833,42.8333 226.5,42.5C 229.692,43.866 233.026,44.6993 236.5,45C 240.456,46.1139 240.456,46.9473 236.5,47.5C 236.567,48.9587 236.234,50.2921 235.5,51.5C 234.292,50.7659 232.959,50.4326 231.5,50.5C 231.5,51.5 231.5,52.5 231.5,53.5C 230.127,53.6567 228.793,53.49 227.5,53C 228.711,52.1072 228.711,51.2739 227.5,50.5C 225.807,52.2786 223.807,52.7786 221.5,52C 223.886,51.7165 224.552,50.7165 223.5,49C 221.765,48.3486 220.098,48.5153 218.5,49.5C 217.304,49.1543 217.304,48.6543 218.5,48C 217.906,47.5357 217.239,47.369 216.5,47.5C 199.066,44.3893 181.733,40.7226 164.5,36.5C 164.811,35.5222 165.478,34.8555 166.5,34.5C 173.362,35.2906 180.362,35.7906 187.5,36C 178.076,34.0455 168.742,31.8788 159.5,29.5C 158.833,29.5 158.167,29.5 157.5,29.5C 157.918,28.7784 158.584,28.2784 159.5,28C 162.5,27.3333 165.5,27.3333 168.5,28C 178.981,30.6107 189.648,32.2774 200.5,33C 201.416,33.2784 202.082,33.7784 202.5,34.5 Z"/></g>
<g><path style="opacity:1" fill="#5c75c7" d="M 156.5,42.5 C 167.492,46.1712 167.159,47.8379 155.5,47.5C 156.301,45.9582 156.634,44.2915 156.5,42.5 Z"/></g>
<g><path style="opacity:1" fill="#252329" d="M 52.5,23.5 C 54.143,23.4802 55.4763,24.1468 56.5,25.5C 58.9406,24.6734 61.1072,24.6734 63,25.5C 63.4955,27.4727 63.6621,29.4727 63.5,31.5C 63.6641,34.1873 63.4974,36.854 63,39.5C 61.228,40.9901 61.0613,42.6568 62.5,44.5C 59.5673,46.7381 59.9007,47.7381 63.5,47.5C 63.5,46.5 63.5,45.5 63.5,44.5C 64.8333,44.5 66.1667,44.5 67.5,44.5C 67.2852,46.1788 67.9519,47.1788 69.5,47.5C 71.1667,47.5 72.8333,47.5 74.5,47.5C 76.6295,57.011 77.4628,66.6776 77,76.5C 79.2711,72.5276 80.1045,68.1943 79.5,63.5C 81.8176,63.6571 83.4843,64.8238 84.5,67C 83.9057,69.7902 82.7391,72.2902 81,74.5C 80.3333,76.1667 80.3333,77.8333 81,79.5C 81.3076,78.6919 81.8076,78.0253 82.5,77.5C 83.2652,78.6119 84.2652,79.2786 85.5,79.5C 85.5,83.5 85.5,87.5 85.5,91.5C 83.4099,91.4501 82.0766,92.4501 81.5,94.5C 78.2152,95.3236 74.8818,95.8236 71.5,96C 70.7476,96.6708 70.4142,97.5041 70.5,98.5C 70.5,99.1667 70.1667,99.5 69.5,99.5C 70.6688,93.5027 71.5021,87.5027 72,81.5C 70.2895,83.9562 68.9562,86.6229 68,89.5C 67.077,87.9656 66.577,86.299 66.5,84.5C 67.2146,77.8534 67.7146,71.1868 68,64.5C 69.8923,60.3742 71.059,56.0409 71.5,51.5C 70.9646,49.7295 70.1313,49.3961 69,50.5C 68.6667,52.1667 68.3333,53.8333 68,55.5C 66.6667,51.5 65.3333,51.5 64,55.5C 63.5172,54.552 63.3505,53.552 63.5,52.5C 63.6567,51.1266 63.49,49.7932 63,48.5C 62.2904,49.9733 61.1238,50.6399 59.5,50.5C 60.0252,45.882 58.6919,44.882 55.5,47.5C 54.3439,43.4498 55.1772,39.7831 58,36.5C 58.8214,33.4459 58.6548,30.4459 57.5,27.5C 56.5224,27.9767 55.6891,28.6433 55,29.5C 54.3333,32.8333 53.6667,36.1667 53,39.5C 52.5006,34.1771 52.334,28.8437 52.5,23.5 Z"/></g>
<g><path style="opacity:1" fill="#2b2a2f" d="M 89.5,60.5 C 88.7868,66.1333 88.1202,71.7999 87.5,77.5C 86.8333,78.1667 86.1667,78.8333 85.5,79.5C 84.2652,79.2786 83.2652,78.6119 82.5,77.5C 81.8076,78.0253 81.3076,78.6919 81,79.5C 80.3333,77.8333 80.3333,76.1667 81,74.5C 82.7391,72.2902 83.9057,69.7902 84.5,67C 83.4843,64.8238 81.8176,63.6571 79.5,63.5C 80.1045,68.1943 79.2711,72.5276 77,76.5C 77.4628,66.6776 76.6295,57.011 74.5,47.5C 72.8333,47.5 71.1667,47.5 69.5,47.5C 69.5,46.1667 69.5,44.8333 69.5,43.5C 71.8155,42.6404 74.1489,42.1404 76.5,42C 77.9165,44.9831 78.7499,48.1498 79,51.5C 81.2475,45.0219 82.7475,38.3552 83.5,31.5C 84.451,32.3256 85.451,32.4922 86.5,32C 85.2234,29.5341 85.2234,27.0341 86.5,24.5C 89.3477,30.4461 90.0143,36.6128 88.5,43C 89.2657,44.7972 89.9324,46.6305 90.5,48.5C 89.7261,52.4649 89.3927,56.4649 89.5,60.5 Z"/></g>
<g><path style="opacity:1" fill="#aadafb" d="M 188.5,44.5 C 196.623,46.1764 204.623,47.843 212.5,49.5C 212.657,50.8734 212.49,52.2068 212,53.5C 209.003,52.1336 205.836,51.467 202.5,51.5C 196.268,50.0805 189.934,48.5805 183.5,47C 182.026,45.6839 180.359,44.6839 178.5,44C 181.8,44.0455 185.134,44.2122 188.5,44.5 Z"/></g>
<g><path style="opacity:1" fill="#1a1a22" d="M 69.5,99.5 C 68.8333,99.5 68.5,99.8333 68.5,100.5C 67.213,101.768 66.213,101.435 65.5,99.5C 63.674,99.9202 61.674,99.9202 59.5,99.5C 54.3982,100.757 50.5649,103.757 48,108.5C 47.8757,105.23 46.209,103.563 43,103.5C 40.823,104.099 38.6563,104.432 36.5,104.5C 36.9767,105.478 37.6433,106.311 38.5,107C 36.5,107.667 34.5,107.667 32.5,107C 33.8259,104.842 35.4925,103.008 37.5,101.5C 38.086,101.709 38.586,102.043 39,102.5C 41.7405,101.718 44.5738,101.218 47.5,101C 44.854,100.503 42.1873,100.336 39.5,100.5C 39.5,99.1667 39.5,97.8333 39.5,96.5C 42.1667,96.5 44.8333,96.5 47.5,96.5C 47.974,100.157 49.3074,100.324 51.5,97C 50.4366,95.8118 49.1033,95.3118 47.5,95.5C 47.9802,92.9954 48.9802,90.6621 50.5,88.5C 49.5291,87.0379 49.8624,85.7046 51.5,84.5C 51.1667,84.1667 50.8333,83.8333 50.5,83.5C 48.0619,87.4231 45.7286,91.4231 43.5,95.5C 42.1861,94.6872 41.0195,93.6872 40,92.5C 39.221,93.7282 38.221,94.7282 37,95.5C 36.5,95.1667 36,94.8333 35.5,94.5C 39.1667,90.1667 43.1667,86.1667 47.5,82.5C 48.7472,80.677 49.4139,78.677 49.5,76.5C 51.1881,74.5233 51.5214,72.5233 50.5,70.5C 53.0059,63.789 54.8393,57.1223 56,50.5C 56.7393,52.2205 57.5726,53.8872 58.5,55.5C 59.3857,54.675 59.719,53.675 59.5,52.5C 60.8333,52.5 62.1667,52.5 63.5,52.5C 63.3505,53.552 63.5172,54.552 64,55.5C 65.3333,51.5 66.6667,51.5 68,55.5C 68.3333,53.8333 68.6667,52.1667 69,50.5C 70.1313,49.3961 70.9646,49.7295 71.5,51.5C 71.059,56.0409 69.8923,60.3742 68,64.5C 67.7146,71.1868 67.2146,77.8534 66.5,84.5C 66.577,86.299 67.077,87.9656 68,89.5C 68.9562,86.6229 70.2895,83.9562 72,81.5C 71.5021,87.5027 70.6688,93.5027 69.5,99.5 Z"/></g>
<g><path style="opacity:1" fill="#8cb4f5" d="M 150.5,36.5 C 163.408,38.5947 176.075,41.2613 188.5,44.5C 185.134,44.2122 181.8,44.0455 178.5,44C 180.359,44.6839 182.026,45.6839 183.5,47C 189.934,48.5805 196.268,50.0805 202.5,51.5C 203.502,55.8504 201.835,57.1837 197.5,55.5C 194.161,53.3818 190.661,52.7152 187,53.5C 186.648,55.2475 186.148,56.9142 185.5,58.5C 185.414,59.4959 185.748,60.3292 186.5,61C 192.432,61.3188 198.098,62.6521 203.5,65C 204.684,66.1455 204.684,67.3121 203.5,68.5C 201.83,68.2488 200.33,67.5822 199,66.5C 196.012,67.7442 193.845,66.7442 192.5,63.5C 191.614,64.325 191.281,65.325 191.5,66.5C 189.5,66.5 187.5,66.5 185.5,66.5C 185.5,69.8333 185.5,73.1667 185.5,76.5C 187.5,76.5 189.5,76.5 191.5,76.5C 193.066,76.9763 193.4,77.643 192.5,78.5C 189.497,77.9149 186.497,77.2482 183.5,76.5C 184.326,75.549 184.492,74.549 184,73.5C 182.89,75.0368 181.39,75.7035 179.5,75.5C 179.274,72.7508 179.607,70.0841 180.5,67.5C 179.318,65.3546 177.818,65.3546 176,67.5C 175.915,71.471 174.915,75.1377 173,78.5C 172.349,76.765 172.515,75.0983 173.5,73.5C 172.282,73.26 171.282,73.26 170.5,73.5C 171.466,68.1839 171.966,62.8506 172,57.5C 170.707,62.2987 169.54,67.132 168.5,72C 168.316,73.3756 167.649,74.2089 166.5,74.5C 162.156,73.4422 157.823,72.2755 153.5,71C 154.448,70.5172 155.448,70.3505 156.5,70.5C 156.923,67.7118 155.923,65.7118 153.5,64.5C 151.584,69.463 151.251,74.463 152.5,79.5C 151.275,80.1522 150.608,81.3189 150.5,83C 150.12,85.7034 151.12,87.5368 153.5,88.5C 151.708,88.634 150.042,88.3007 148.5,87.5C 149.314,82.8809 149.647,78.2142 149.5,73.5C 150.207,70.2139 150.54,66.8806 150.5,63.5C 151.5,63.5 152.5,63.5 153.5,63.5C 153.216,61.5853 153.549,59.9187 154.5,58.5C 154.5,60.1667 154.5,61.8333 154.5,63.5C 158.555,63.8242 162.555,63.4909 166.5,62.5C 164.458,61.0902 162.458,59.5902 160.5,58C 161.917,55.1738 163.417,55.0072 165,57.5C 166.608,57.0261 166.774,56.3594 165.5,55.5C 161.653,53.1109 157.986,53.1109 154.5,55.5C 154.401,52.7628 154.735,50.0961 155.5,47.5C 167.159,47.8379 167.492,46.1712 156.5,42.5C 157.871,38.9417 157.204,38.6084 154.5,41.5C 152.763,40.1026 151.429,38.4359 150.5,36.5 Z"/></g>
<g><path style="opacity:1" fill="#66a5db" d="M 216.5,47.5 C 217.239,47.369 217.906,47.5357 218.5,48C 217.304,48.6543 217.304,49.1543 218.5,49.5C 220.098,48.5153 221.765,48.3486 223.5,49C 224.552,50.7165 223.886,51.7165 221.5,52C 223.807,52.7786 225.807,52.2786 227.5,50.5C 228.711,51.2739 228.711,52.1072 227.5,53C 228.793,53.49 230.127,53.6567 231.5,53.5C 231.5,52.5 231.5,51.5 231.5,50.5C 232.959,50.4326 234.292,50.7659 235.5,51.5C 236.552,51.3505 237.552,51.5172 238.5,52C 237.54,53.4194 236.707,54.9194 236,56.5C 235.275,57.0585 234.442,57.3918 233.5,57.5C 227.5,56 221.5,54.5 215.5,53C 214.027,52.2904 213.36,51.1238 213.5,49.5C 215.179,49.7148 216.179,49.0481 216.5,47.5 Z"/></g>
<g><path style="opacity:1" fill="#7d8c8d" d="M 197.5,55.5 C 197.5,56.5 197.5,57.5 197.5,58.5C 195.5,58.8333 193.5,59.1667 191.5,59.5C 189.735,58.5386 187.735,58.2053 185.5,58.5C 186.148,56.9142 186.648,55.2475 187,53.5C 190.661,52.7152 194.161,53.3818 197.5,55.5 Z"/></g>
<g><path style="opacity:1" fill="#161c2d" d="M 116.5,37.5 C 117.461,39.2646 117.795,41.2646 117.5,43.5C 116.347,54.4868 115.347,65.4868 114.5,76.5C 116.216,76.6287 117.883,76.962 119.5,77.5C 118.828,78.2674 117.995,78.9341 117,79.5C 116.251,80.635 116.417,81.635 117.5,82.5C 123.01,84.3324 128.343,86.3324 133.5,88.5C 130.007,89.7638 126.507,89.7638 123,88.5C 119.926,86.9201 116.759,85.5868 113.5,84.5C 113.649,83.448 113.483,82.448 113,81.5C 111.644,82.3802 110.144,82.7135 108.5,82.5C 109.321,70.8072 110.321,59.1405 111.5,47.5C 112.29,48.6085 112.79,49.9419 113,51.5C 114.7,46.961 115.867,42.2944 116.5,37.5 Z"/></g>
<g><path style="opacity:1" fill="#101019" d="M 254.5,39.5 C 250.702,52.2279 246.702,64.8946 242.5,77.5C 241.35,78.8502 240.683,78.6836 240.5,77C 243.43,67.9391 246.097,58.7724 248.5,49.5C 247.72,48.0505 247.054,46.5505 246.5,45C 248.492,41.4102 248.825,37.7435 247.5,34C 248.308,32.2942 249.641,31.4609 251.5,31.5C 251.144,34.776 252.144,37.4427 254.5,39.5 Z"/></g>
<g><path style="opacity:1" fill="#23294f" d="M 142.5,63.5 C 143.304,60.4076 143.637,57.0743 143.5,53.5C 143.5,51.5 143.5,49.5 143.5,47.5C 145.199,47.3398 146.866,47.5065 148.5,48C 149.329,51.2144 148.662,54.2144 146.5,57C 147.022,57.9503 147.689,58.7836 148.5,59.5C 146.827,61.5225 146.16,63.8559 146.5,66.5C 144.027,66.9118 142.694,65.9118 142.5,63.5 Z"/></g>
<g><path style="opacity:1" fill="#7182dc" d="M 154.5,58.5 C 154.5,57.5 154.5,56.5 154.5,55.5C 157.986,53.1109 161.653,53.1109 165.5,55.5C 166.774,56.3594 166.608,57.0261 165,57.5C 163.417,55.0072 161.917,55.1738 160.5,58C 162.458,59.5902 164.458,61.0902 166.5,62.5C 162.555,63.4909 158.555,63.8242 154.5,63.5C 154.5,61.8333 154.5,60.1667 154.5,58.5 Z"/></g>
<g><path style="opacity:1" fill="#6d83d0" d="M 185.5,58.5 C 187.735,58.2053 189.735,58.5386 191.5,59.5C 194.305,60.3195 197.305,60.8195 200.5,61C 204.123,63.1734 207.79,65.0068 211.5,66.5C 210.167,66.5 208.833,66.5 207.5,66.5C 207.5,67.8333 207.5,69.1667 207.5,70.5C 205.517,70.8432 204.183,70.1765 203.5,68.5C 204.684,67.3121 204.684,66.1455 203.5,65C 198.098,62.6521 192.432,61.3188 186.5,61C 185.748,60.3292 185.414,59.4959 185.5,58.5 Z"/></g>
<g><path style="opacity:1" fill="#9ccef8" d="M 202.5,34.5 C 215.837,37.4197 229.17,39.7531 242.5,41.5C 241.344,45.7925 240.344,50.1259 239.5,54.5C 234.61,67.8439 230.276,81.5106 226.5,95.5C 225.5,95.5 224.5,95.5 223.5,95.5C 223.621,89.7752 224.287,84.1085 225.5,78.5C 225.564,76.4434 224.898,74.7767 223.5,73.5C 223.5,71.8333 223.5,70.1667 223.5,68.5C 219.374,68.428 215.374,67.7613 211.5,66.5C 207.79,65.0068 204.123,63.1734 200.5,61C 197.305,60.8195 194.305,60.3195 191.5,59.5C 193.5,59.1667 195.5,58.8333 197.5,58.5C 197.5,57.5 197.5,56.5 197.5,55.5C 201.835,57.1837 203.502,55.8504 202.5,51.5C 205.836,51.467 209.003,52.1336 212,53.5C 212.49,52.2068 212.657,50.8734 212.5,49.5C 212.833,49.5 213.167,49.5 213.5,49.5C 213.36,51.1238 214.027,52.2904 215.5,53C 221.5,54.5 227.5,56 233.5,57.5C 234.442,57.3918 235.275,57.0585 236,56.5C 236.707,54.9194 237.54,53.4194 238.5,52C 237.552,51.5172 236.552,51.3505 235.5,51.5C 236.234,50.2921 236.567,48.9587 236.5,47.5C 240.456,46.9473 240.456,46.1139 236.5,45C 233.026,44.6993 229.692,43.866 226.5,42.5C 225.833,42.8333 225.167,43.1667 224.5,43.5C 213.407,40.6444 202.407,37.6444 191.5,34.5C 195.096,33.9209 198.762,33.9209 202.5,34.5 Z"/></g>
<g><path style="opacity:1" fill="#6661e2" d="M 211.5,66.5 C 215.374,67.7613 219.374,68.428 223.5,68.5C 223.5,70.1667 223.5,71.8333 223.5,73.5C 218.01,73.2685 212.676,72.2685 207.5,70.5C 207.5,69.1667 207.5,67.8333 207.5,66.5C 208.833,66.5 210.167,66.5 211.5,66.5 Z"/></g>
<g><path style="opacity:1" fill="#1c1c24" d="M 50.5,70.5 C 51.5214,72.5233 51.1881,74.5233 49.5,76.5C 44.2305,80.5935 39.0639,84.9268 34,89.5C 33.0546,89.0946 32.3879,88.428 32,87.5C 31.2888,89.3668 31.7888,90.8668 33.5,92C 30.657,95.1754 27.4903,98.0087 24,100.5C 22.5596,99.0696 22.2263,97.403 23,95.5C 23.3333,96.1667 23.6667,96.8333 24,97.5C 24.6667,95.5 24.6667,93.5 24,91.5C 21.1905,93.1609 18.3572,94.8276 15.5,96.5C 15.67,95.1779 15.3366,94.0113 14.5,93C 16.3589,91.4422 17.8589,89.6089 19,87.5C 21.2412,79.021 24.5745,71.021 29,63.5C 29.885,60.462 29.385,57.7954 27.5,55.5C 25.6815,54.0638 25.3482,52.3971 26.5,50.5C 27.2868,51.2421 27.9535,52.0754 28.5,53C 29.7441,53.4561 30.5774,52.9561 31,51.5C 31.779,52.7282 32.779,53.7282 34,54.5C 35.7297,53.3507 37.3963,53.3507 39,54.5C 40.4382,50.7531 41.9382,50.9197 43.5,55C 42.1782,58.8706 40.6782,62.7039 39,66.5C 39.578,62.8323 39.4113,59.1656 38.5,55.5C 37.1239,56.8419 35.7906,58.1752 34.5,59.5C 35.2634,60.7193 36.2634,61.7193 37.5,62.5C 36.689,63.2164 36.0223,64.0497 35.5,65C 36.7067,67.9825 36.7067,70.9825 35.5,74C 33.142,77.2063 31.142,80.7063 29.5,84.5C 30,84.8333 30.5,85.1667 31,85.5C 34.3473,83.6519 36.8473,80.9853 38.5,77.5C 40.623,72.8628 42.623,68.1961 44.5,63.5C 44.6213,66.0018 44.7879,68.6685 45,71.5C 46.2515,69.9991 47.2515,68.3325 48,66.5C 47.8446,68.8107 47.8446,71.144 48,73.5C 48.6979,72.3094 49.5313,71.3094 50.5,70.5 Z"/></g>
<g><path style="opacity:1" fill="#0f1024" d="M 255.5,35.5 C 255.768,37.099 255.434,38.4324 254.5,39.5C 252.144,37.4427 251.144,34.776 251.5,31.5C 249.641,31.4609 248.308,32.2942 247.5,34C 248.825,37.7435 248.492,41.4102 246.5,45C 247.054,46.5505 247.72,48.0505 248.5,49.5C 246.097,58.7724 243.43,67.9391 240.5,77C 240.683,78.6836 241.35,78.8502 242.5,77.5C 242.672,78.4916 242.338,79.1583 241.5,79.5C 239.938,77.6283 238.938,75.2949 238.5,72.5C 238.167,72.6667 237.833,72.8333 237.5,73C 236.7,77.08 236.2,81.2467 236,85.5C 234.89,87.0368 233.39,87.7035 231.5,87.5C 234.002,80.858 236.502,74.1914 239,67.5C 239.499,63.1794 239.666,58.8461 239.5,54.5C 240.344,50.1259 241.344,45.7925 242.5,41.5C 243.67,39.3498 244.67,37.0164 245.5,34.5C 241.373,33.489 237.373,32.489 233.5,31.5C 238.179,31.6658 242.845,31.4992 247.5,31C 247.167,30.6667 246.833,30.3333 246.5,30C 249.351,28.7114 252.351,28.2114 255.5,28.5C 255.5,30.8333 255.5,33.1667 255.5,35.5 Z"/></g>
<g><path style="opacity:1" fill="#6272d1" d="M 166.5,74.5 C 166.5,75.5 166.5,76.5 166.5,77.5C 165.178,77.33 164.011,77.6634 163,78.5C 162.02,77.0186 160.853,75.6853 159.5,74.5C 158.571,75.6888 158.238,77.0222 158.5,78.5C 161.363,78.9294 164.029,79.9294 166.5,81.5C 166.167,81.8333 165.833,82.1667 165.5,82.5C 161.488,80.1172 157.155,79.1172 152.5,79.5C 151.251,74.463 151.584,69.463 153.5,64.5C 155.923,65.7118 156.923,67.7118 156.5,70.5C 155.448,70.3505 154.448,70.5172 153.5,71C 157.823,72.2755 162.156,73.4422 166.5,74.5 Z"/></g>
<g><path style="opacity:1" fill="#96c6f9" d="M 203.5,68.5 C 204.183,70.1765 205.517,70.8432 207.5,70.5C 212.676,72.2685 218.01,73.2685 223.5,73.5C 224.898,74.7767 225.564,76.4434 225.5,78.5C 224.287,84.1085 223.621,89.7752 223.5,95.5C 224.5,95.5 225.5,95.5 226.5,95.5C 224.834,100.829 223.167,106.162 221.5,111.5C 220.5,112.833 219.5,112.833 218.5,111.5C 219.278,110.844 219.944,110.011 220.5,109C 219.311,107.105 218.311,105.105 217.5,103C 217.833,102.667 218.167,102.333 218.5,102C 216.462,98.6454 213.462,96.812 209.5,96.5C 205.784,97.3456 202.117,98.3456 198.5,99.5C 196.205,98.5682 193.871,97.7348 191.5,97C 195.442,96.2855 199.109,94.9521 202.5,93C 199.611,91.6829 198.944,89.6829 200.5,87C 199.381,84.7113 198.047,82.5447 196.5,80.5C 196.957,79.7025 197.624,79.3691 198.5,79.5C 199.5,79.5 200.5,79.5 201.5,79.5C 201.5,78.5 201.5,77.5 201.5,76.5C 198.627,76.1977 195.961,75.531 193.5,74.5C 194.038,72.8828 194.371,71.2161 194.5,69.5C 191.873,68.9084 189.206,68.5751 186.5,68.5C 186.017,72.5769 187.684,74.9103 191.5,75.5C 191.5,75.8333 191.5,76.1667 191.5,76.5C 189.5,76.5 187.5,76.5 185.5,76.5C 185.5,73.1667 185.5,69.8333 185.5,66.5C 187.5,66.5 189.5,66.5 191.5,66.5C 191.281,65.325 191.614,64.325 192.5,63.5C 193.845,66.7442 196.012,67.7442 199,66.5C 200.33,67.5822 201.83,68.2488 203.5,68.5 Z"/></g>
<g><path style="opacity:1" fill="#88a9b3" d="M 193.5,74.5 C 192.833,74.8333 192.167,75.1667 191.5,75.5C 187.684,74.9103 186.017,72.5769 186.5,68.5C 189.206,68.5751 191.873,68.9084 194.5,69.5C 194.371,71.2161 194.038,72.8828 193.5,74.5 Z"/></g>
<g><path style="opacity:1" fill="#7c9fd0" d="M 117.5,43.5 C 117.833,43.5 118.167,43.5 118.5,43.5C 119.391,44.2613 120.058,45.2613 120.5,46.5C 119.369,54.546 118.702,62.546 118.5,70.5C 118.833,70.8333 119.167,71.1667 119.5,71.5C 120.386,70.675 120.719,69.675 120.5,68.5C 125.04,68.1488 127.54,70.1488 128,74.5C 128.308,73.6919 128.808,73.0253 129.5,72.5C 131.037,71.8019 132.37,71.4685 133.5,71.5C 136.137,72.1641 138.803,72.8307 141.5,73.5C 142.883,70.9244 143.717,71.2577 144,74.5C 145.699,73.5939 147.533,73.2606 149.5,73.5C 149.647,78.2142 149.314,82.8809 148.5,87.5C 145.156,86.4925 141.823,85.4925 138.5,84.5C 132.333,81.9252 125.999,79.5918 119.5,77.5C 117.883,76.962 116.216,76.6287 114.5,76.5C 115.347,65.4868 116.347,54.4868 117.5,43.5 Z"/></g>
<g><path style="opacity:1" fill="#171722" d="M 27.5,55.5 C 29.385,57.7954 29.885,60.462 29,63.5C 24.5745,71.021 21.2412,79.021 19,87.5C 17.8589,89.6089 16.3589,91.4422 14.5,93C 15.3366,94.0113 15.67,95.1779 15.5,96.5C 15.8807,97.9311 16.8807,98.7645 18.5,99C 17.3774,100.044 16.0441,100.71 14.5,101C 15.1667,102.333 16.1667,103.333 17.5,104C 16.2211,107.232 14.2211,109.899 11.5,112C 13.7287,114.548 15.0621,117.548 15.5,121C 15.0946,121.945 14.428,122.612 13.5,123C 15.2826,124.067 15.7826,125.567 15,127.5C 14.6667,126.833 14.3333,126.167 14,125.5C 10.3932,128.269 7.0599,127.936 4,124.5C 3.09216,126.439 1.59216,127.439 -0.5,127.5C -0.5,104.833 -0.5,82.1667 -0.5,59.5C 0.833333,59.5 2.16667,59.5 3.5,59.5C 3.5605,64.322 4.72717,64.6553 7,60.5C 7.61723,61.4491 7.45057,62.2825 6.5,63C 9.48162,63.498 12.4816,63.6646 15.5,63.5C 15.5,62.5 15.5,61.5 15.5,60.5C 11.5,60.1667 11.5,59.8333 15.5,59.5C 15.3433,58.1266 15.51,56.7932 16,55.5C 16.1816,58.2263 16.6816,60.8929 17.5,63.5C 20.8018,65.8817 22.8018,64.8817 23.5,60.5C 26.4701,60.2542 27.8034,58.5876 27.5,55.5 Z"/></g>
<g><path style="opacity:1" fill="#b1969b" d="M 91.5,52.5 C 92.7342,54.2014 93.4008,56.2014 93.5,58.5C 92.8333,61.8333 92.1667,65.1667 91.5,68.5C 91.9673,71.1476 93.1339,73.4809 95,75.5C 95.8215,78.1168 96.3215,80.7835 96.5,83.5C 96.5,85.5 96.5,87.5 96.5,89.5C 88.0051,89.9846 85.0051,85.9846 87.5,77.5C 88.1202,71.7999 88.7868,66.1333 89.5,60.5C 90.3705,57.997 91.0372,55.3303 91.5,52.5 Z"/></g>
<g><path style="opacity:1" fill="#7d9ce9" d="M 170.5,73.5 C 168.789,77.8807 168.123,82.5474 168.5,87.5C 165.461,88.01 162.461,88.6766 159.5,89.5C 159.25,86.4955 160.583,84.6622 163.5,84C 159.738,82.5834 156.072,81.0834 152.5,79.5C 157.155,79.1172 161.488,80.1172 165.5,82.5C 165.833,82.1667 166.167,81.8333 166.5,81.5C 164.029,79.9294 161.363,78.9294 158.5,78.5C 158.238,77.0222 158.571,75.6888 159.5,74.5C 160.853,75.6853 162.02,77.0186 163,78.5C 164.011,77.6634 165.178,77.33 166.5,77.5C 166.5,76.5 166.5,75.5 166.5,74.5C 167.649,74.2089 168.316,73.3756 168.5,72C 169.54,67.132 170.707,62.2987 172,57.5C 171.966,62.8506 171.466,68.1839 170.5,73.5 Z"/></g>
<g><path style="opacity:1" fill="#6469cf" d="M 152.5,79.5 C 156.072,81.0834 159.738,82.5834 163.5,84C 160.583,84.6622 159.25,86.4955 159.5,89.5C 157.621,88.6586 155.621,88.3253 153.5,88.5C 151.12,87.5368 150.12,85.7034 150.5,83C 150.608,81.3189 151.275,80.1522 152.5,79.5 Z"/></g>
<g><path style="opacity:1" fill="#183069" d="M 138.5,84.5 C 141.823,85.4925 145.156,86.4925 148.5,87.5C 150.042,88.3007 151.708,88.634 153.5,88.5C 154.29,89.4013 155.29,90.0679 156.5,90.5C 154.239,90.6453 151.906,90.6453 149.5,90.5C 146.593,88.6427 143.427,87.3093 140,86.5C 137.52,87.6019 137.02,86.9353 138.5,84.5 Z"/></g>
<g><path style="opacity:1" fill="#5d6d95" d="M 119.5,77.5 C 125.999,79.5918 132.333,81.9252 138.5,84.5C 137.02,86.9353 137.52,87.6019 140,86.5C 143.427,87.3093 146.593,88.6427 149.5,90.5C 151.906,90.6453 154.239,90.6453 156.5,90.5C 157.492,90.3284 158.158,90.6618 158.5,91.5C 157.933,92.4202 158.599,92.7535 160.5,92.5C 160.238,93.9778 160.571,95.3112 161.5,96.5C 162.524,95.1468 163.857,94.4802 165.5,94.5C 165.5,95.5 165.5,96.5 165.5,97.5C 163.5,97.5 161.5,97.5 159.5,97.5C 150.833,94.5 142.167,91.5 133.5,88.5C 128.343,86.3324 123.01,84.3324 117.5,82.5C 116.417,81.635 116.251,80.635 117,79.5C 117.995,78.9341 118.828,78.2674 119.5,77.5 Z"/></g>
<g><path style="opacity:1" fill="#85b0f1" d="M 191.5,76.5 C 191.5,76.1667 191.5,75.8333 191.5,75.5C 192.167,75.1667 192.833,74.8333 193.5,74.5C 195.961,75.531 198.627,76.1977 201.5,76.5C 201.5,77.5 201.5,78.5 201.5,79.5C 200.5,79.5 199.5,79.5 198.5,79.5C 193.919,79.3803 189.252,79.3803 184.5,79.5C 182.767,83.7538 184.1,86.4205 188.5,87.5C 189.618,91.074 189.618,94.2407 188.5,97C 186.406,98.3515 184.073,98.8515 181.5,98.5C 173.762,96.3649 166.096,94.0316 158.5,91.5C 158.158,90.6618 157.492,90.3284 156.5,90.5C 155.29,90.0679 154.29,89.4013 153.5,88.5C 155.621,88.3253 157.621,88.6586 159.5,89.5C 162.461,88.6766 165.461,88.01 168.5,87.5C 168.123,82.5474 168.789,77.8807 170.5,73.5C 171.282,73.26 172.282,73.26 173.5,73.5C 172.515,75.0983 172.349,76.765 173,78.5C 174.915,75.1377 175.915,71.471 176,67.5C 177.818,65.3546 179.318,65.3546 180.5,67.5C 179.607,70.0841 179.274,72.7508 179.5,75.5C 181.39,75.7035 182.89,75.0368 184,73.5C 184.492,74.549 184.326,75.549 183.5,76.5C 186.497,77.2482 189.497,77.9149 192.5,78.5C 193.4,77.643 193.066,76.9763 191.5,76.5 Z"/></g>
<g><path style="opacity:1" fill="#0f1a39" d="M 239.5,54.5 C 239.666,58.8461 239.499,63.1794 239,67.5C 236.502,74.1914 234.002,80.858 231.5,87.5C 230.735,90.0961 230.401,92.7628 230.5,95.5C 229.5,95.5 228.5,95.5 227.5,95.5C 227.867,99.9671 227.367,104.3 226,108.5C 225.692,107.692 225.192,107.025 224.5,106.5C 223.548,108.045 223.215,109.712 223.5,111.5C 222.833,111.5 222.167,111.5 221.5,111.5C 223.167,106.162 224.834,100.829 226.5,95.5C 230.276,81.5106 234.61,67.8439 239.5,54.5 Z"/></g>
<g><path style="opacity:1" fill="#574e3d" d="M 110.5,93.5 C 111.167,94.1667 111.833,94.8333 112.5,95.5C 110.458,98.0038 108.792,97.6704 107.5,94.5C 108.209,93.596 109.209,93.2627 110.5,93.5 Z"/></g>
<g><path style="opacity:1" fill="#33332d" d="M 119.5,91.5 C 126.849,94.2285 134.182,97.0619 141.5,100C 142.973,100.71 143.64,101.876 143.5,103.5C 134.649,100.218 125.982,96.5513 117.5,92.5C 117.957,91.7025 118.624,91.3691 119.5,91.5 Z"/></g>
<g><path style="opacity:1" fill="#3e3c27" d="M 115.5,96.5 C 117.5,96.5 118.5,97.5 118.5,99.5C 116.335,99.8841 114.668,99.2174 113.5,97.5C 114.2,97.2129 114.867,96.8795 115.5,96.5 Z"/></g>
<g><path style="opacity:1" fill="#7082ae" d="M 159.5,97.5 C 161.5,97.5 163.5,97.5 165.5,97.5C 168.024,97.957 170.691,97.957 173.5,97.5C 173.5,98.8333 173.5,100.167 173.5,101.5C 177.645,100.943 181.311,101.943 184.5,104.5C 186.747,103.626 189.08,103.292 191.5,103.5C 191.343,104.873 191.51,106.207 192,107.5C 195.286,104.677 197.952,105.011 200,108.5C 202.79,107.218 204.957,108.052 206.5,111C 208.989,111.941 210.989,111.441 212.5,109.5C 214.027,109.427 215.027,110.094 215.5,111.5C 215.851,113.869 216.018,116.203 216,118.5C 197.049,111.564 178.216,104.564 159.5,97.5 Z"/></g>
<g><path style="opacity:1" fill="#8dbafa" d="M 198.5,79.5 C 197.624,79.3691 196.957,79.7025 196.5,80.5C 198.047,82.5447 199.381,84.7113 200.5,87C 198.944,89.6829 199.611,91.6829 202.5,93C 199.109,94.9521 195.442,96.2855 191.5,97C 193.871,97.7348 196.205,98.5682 198.5,99.5C 202.117,98.3456 205.784,97.3456 209.5,96.5C 213.462,96.812 216.462,98.6454 218.5,102C 218.167,102.333 217.833,102.667 217.5,103C 218.311,105.105 219.311,107.105 220.5,109C 219.944,110.011 219.278,110.844 218.5,111.5C 217.5,111.5 216.5,111.5 215.5,111.5C 215.027,110.094 214.027,109.427 212.5,109.5C 201.802,106.447 191.469,102.781 181.5,98.5C 184.073,98.8515 186.406,98.3515 188.5,97C 189.618,94.2407 189.618,91.074 188.5,87.5C 184.1,86.4205 182.767,83.7538 184.5,79.5C 189.252,79.3803 193.919,79.3803 198.5,79.5 Z"/></g>
<g><path style="opacity:1" fill="#9b8a73" d="M 96.5,83.5 C 97.4861,87.97 97.8195,92.6367 97.5,97.5C 101.475,98.1422 104.808,97.1422 107.5,94.5C 108.792,97.6704 110.458,98.0038 112.5,95.5C 113.791,95.2627 114.791,95.596 115.5,96.5C 114.867,96.8795 114.2,97.2129 113.5,97.5C 114.668,99.2174 116.335,99.8841 118.5,99.5C 120.348,102.478 122.348,102.812 124.5,100.5C 126.786,100.595 128.786,101.262 130.5,102.5C 130.53,103.497 130.03,104.164 129,104.5C 127.56,103.852 126.06,103.519 124.5,103.5C 123.167,103.833 121.833,104.167 120.5,104.5C 119.626,102.31 117.959,101.31 115.5,101.5C 114.828,100.733 113.995,100.066 113,99.5C 109.712,99.6584 106.212,99.6584 102.5,99.5C 100.143,99.6633 97.8098,99.4966 95.5,99C 96.4505,95.9433 96.7839,92.7766 96.5,89.5C 96.5,87.5 96.5,85.5 96.5,83.5 Z"/></g>
<g><path style="opacity:1" fill="#5a3d39" d="M 59.5,99.5 C 61.674,99.9202 63.674,99.9202 65.5,99.5C 66.213,101.435 67.213,101.768 68.5,100.5C 68.2131,102.121 67.2131,103.121 65.5,103.5C 62.9159,102.607 60.2492,102.274 57.5,102.5C 58.1667,101.5 58.8333,100.5 59.5,99.5 Z"/></g>
<g><path style="opacity:1" fill="#6a3f24" d="M 102.5,99.5 C 106.212,99.6584 109.712,99.6584 113,99.5C 113.995,100.066 114.828,100.733 115.5,101.5C 111.244,102.304 106.911,102.304 102.5,101.5C 102.5,100.833 102.5,100.167 102.5,99.5 Z"/></g>
<g><path style="opacity:1" fill="#4c3f2f" d="M 124.5,100.5 C 122.348,102.812 120.348,102.478 118.5,99.5C 120.792,98.1542 122.792,98.4876 124.5,100.5 Z"/></g>
<g><path style="opacity:1" fill="#13131b" d="M 49.5,76.5 C 49.4139,78.677 48.7472,80.677 47.5,82.5C 43.1667,86.1667 39.1667,90.1667 35.5,94.5C 36,94.8333 36.5,95.1667 37,95.5C 38.221,94.7282 39.221,93.7282 40,92.5C 41.0195,93.6872 42.1861,94.6872 43.5,95.5C 45.7286,91.4231 48.0619,87.4231 50.5,83.5C 50.8333,83.8333 51.1667,84.1667 51.5,84.5C 49.8624,85.7046 49.5291,87.0379 50.5,88.5C 48.9802,90.6621 47.9802,92.9954 47.5,95.5C 49.1033,95.3118 50.4366,95.8118 51.5,97C 49.3074,100.324 47.974,100.157 47.5,96.5C 44.8333,96.5 42.1667,96.5 39.5,96.5C 39.5,97.8333 39.5,99.1667 39.5,100.5C 42.1873,100.336 44.854,100.503 47.5,101C 44.5738,101.218 41.7405,101.718 39,102.5C 38.586,102.043 38.086,101.709 37.5,101.5C 35.4925,103.008 33.8259,104.842 32.5,107C 34.5,107.667 36.5,107.667 38.5,107C 37.6433,106.311 36.9767,105.478 36.5,104.5C 38.6563,104.432 40.823,104.099 43,103.5C 46.209,103.563 47.8757,105.23 48,108.5C 50.5649,103.757 54.3982,100.757 59.5,99.5C 58.8333,100.5 58.1667,101.5 57.5,102.5C 54.9561,103.468 52.7895,105.135 51,107.5C 48.8385,110.831 47.5052,114.498 47,118.5C 46.4387,117.978 45.772,117.645 45,117.5C 40.8473,120.129 37.3473,123.462 34.5,127.5C 32.1667,127.5 29.8333,127.5 27.5,127.5C 27.8134,130.247 27.48,132.914 26.5,135.5C 22.9995,135.91 20.6661,137.743 19.5,141C 14.748,143.748 10.5813,147.248 7,151.5C 6.71039,149.956 6.04373,148.623 5,147.5C 4.18701,149.436 3.68701,151.436 3.5,153.5C 2.16667,153.5 0.833333,153.5 -0.5,153.5C -0.5,144.833 -0.5,136.167 -0.5,127.5C 1.59216,127.439 3.09216,126.439 4,124.5C 7.0599,127.936 10.3932,128.269 14,125.5C 14.3333,126.167 14.6667,126.833 15,127.5C 15.7826,125.567 15.2826,124.067 13.5,123C 14.428,122.612 15.0946,121.945 15.5,121C 15.0621,117.548 13.7287,114.548 11.5,112C 14.2211,109.899 16.2211,107.232 17.5,104C 16.1667,103.333 15.1667,102.333 14.5,101C 16.0441,100.71 17.3774,100.044 18.5,99C 16.8807,98.7645 15.8807,97.9311 15.5,96.5C 18.3572,94.8276 21.1905,93.1609 24,91.5C 24.6667,93.5 24.6667,95.5 24,97.5C 23.6667,96.8333 23.3333,96.1667 23,95.5C 22.2263,97.403 22.5596,99.0696 24,100.5C 27.4903,98.0087 30.657,95.1754 33.5,92C 31.7888,90.8668 31.2888,89.3668 32,87.5C 32.3879,88.428 33.0546,89.0946 34,89.5C 39.0639,84.9268 44.2305,80.5935 49.5,76.5 Z"/></g>
<g><path style="opacity:1" fill="#986b5a" d="M 87.5,77.5 C 85.0051,85.9846 88.0051,89.9846 96.5,89.5C 96.7839,92.7766 96.4505,95.9433 95.5,99C 97.8098,99.4966 100.143,99.6633 102.5,99.5C 102.5,100.167 102.5,100.833 102.5,101.5C 100.167,101.5 97.8333,101.5 95.5,101.5C 95.5,104.833 95.5,108.167 95.5,111.5C 99.3293,110.931 102.663,111.598 105.5,113.5C 100.527,112.441 95.86,113.108 91.5,115.5C 89.9303,118.314 88.5969,121.314 87.5,124.5C 86.5207,125.765 85.5207,127.099 84.5,128.5C 84.8333,128.833 85.1667,129.167 85.5,129.5C 88.6026,127.688 91.9359,126.688 95.5,126.5C 95.5,126.833 95.5,127.167 95.5,127.5C 87.9179,129.546 80.5846,132.213 73.5,135.5C 72.1667,135.833 70.8333,136.167 69.5,136.5C 70.2543,133.909 71.921,132.076 74.5,131C 72.6284,127.752 71.4618,124.252 71,120.5C 67.5796,123.199 63.9129,125.532 60,127.5C 59.5065,125.866 59.3398,124.199 59.5,122.5C 62.5116,121.745 65.1783,120.412 67.5,118.5C 67.5,116.5 67.5,114.5 67.5,112.5C 71.2583,112.42 74.2583,110.92 76.5,108C 74.0174,105.597 74.0174,103.264 76.5,101C 75.451,100.508 74.451,100.674 73.5,101.5C 72.8589,100.007 71.8589,99.0065 70.5,98.5C 70.4142,97.5041 70.7476,96.6708 71.5,96C 74.8818,95.8236 78.2152,95.3236 81.5,94.5C 82.0766,92.4501 83.4099,91.4501 85.5,91.5C 85.5,87.5 85.5,83.5 85.5,79.5C 86.1667,78.8333 86.8333,78.1667 87.5,77.5 Z"/></g>
<g><path style="opacity:1" fill="#0f101d" d="M 133.5,88.5 C 142.167,91.5 150.833,94.5 159.5,97.5C 178.216,104.564 197.049,111.564 216,118.5C 216.018,116.203 215.851,113.869 215.5,111.5C 216.5,111.5 217.5,111.5 218.5,111.5C 219.5,112.833 220.5,112.833 221.5,111.5C 222.167,111.5 222.833,111.5 223.5,111.5C 224.525,111.897 224.692,112.563 224,113.5C 221.587,115.409 219.753,117.743 218.5,120.5C 217.167,121.167 215.833,121.833 214.5,122.5C 211.005,119.515 208.005,119.848 205.5,123.5C 203.685,124.63 201.685,125.296 199.5,125.5C 199.918,124.778 200.584,124.278 201.5,124C 184.303,116.819 166.97,109.819 149.5,103C 147.934,102.235 146.601,102.402 145.5,103.5C 144.833,103.5 144.167,103.5 143.5,103.5C 143.64,101.876 142.973,100.71 141.5,100C 134.182,97.0619 126.849,94.2285 119.5,91.5C 116.446,89.4691 113.113,87.8024 109.5,86.5C 108.702,86.0431 108.369,85.3764 108.5,84.5C 108.5,83.8333 108.5,83.1667 108.5,82.5C 110.144,82.7135 111.644,82.3802 113,81.5C 113.483,82.448 113.649,83.448 113.5,84.5C 116.759,85.5868 119.926,86.9201 123,88.5C 126.507,89.7638 130.007,89.7638 133.5,88.5 Z"/></g>
<g><path style="opacity:1" fill="#564b39" d="M 124.5,103.5 C 125.429,104.315 126.429,105.148 127.5,106C 126.619,106.708 125.953,107.542 125.5,108.5C 123.246,107.876 121.579,106.543 120.5,104.5C 121.833,104.167 123.167,103.833 124.5,103.5 Z"/></g>
<g><path style="opacity:1" fill="#54553f" d="M 132.5,103.5 C 134.553,103.402 136.22,104.069 137.5,105.5C 135.783,107.733 133.783,107.733 131.5,105.5C 131.863,104.817 132.196,104.15 132.5,103.5 Z"/></g>
<g><path style="opacity:1" fill="#283c68" d="M 158.5,91.5 C 166.096,94.0316 173.762,96.3649 181.5,98.5C 191.469,102.781 201.802,106.447 212.5,109.5C 210.989,111.441 208.989,111.941 206.5,111C 204.957,108.052 202.79,107.218 200,108.5C 197.952,105.011 195.286,104.677 192,107.5C 191.51,106.207 191.343,104.873 191.5,103.5C 189.08,103.292 186.747,103.626 184.5,104.5C 181.311,101.943 177.645,100.943 173.5,101.5C 173.5,100.167 173.5,98.8333 173.5,97.5C 170.691,97.957 168.024,97.957 165.5,97.5C 165.5,96.5 165.5,95.5 165.5,94.5C 163.857,94.4802 162.524,95.1468 161.5,96.5C 160.571,95.3112 160.238,93.9778 160.5,92.5C 158.599,92.7535 157.933,92.4202 158.5,91.5 Z"/></g>
<g><path style="opacity:1" fill="#4d4730" d="M 140.5,106.5 C 142.632,106.554 143.965,107.554 144.5,109.5C 142.067,110.329 139.733,109.829 137.5,108C 138.244,106.961 139.244,106.461 140.5,106.5 Z"/></g>
<g><path style="opacity:1" fill="#2e2d28" d="M 199.5,125.5 C 181.349,118.343 163.349,111.01 145.5,103.5C 146.601,102.402 147.934,102.235 149.5,103C 166.97,109.819 184.303,116.819 201.5,124C 200.584,124.278 199.918,124.778 199.5,125.5 Z"/></g>
<g><path style="opacity:1" fill="#9e674e" d="M 102.5,101.5 C 106.911,102.304 111.244,102.304 115.5,101.5C 117.959,101.31 119.626,102.31 120.5,104.5C 121.579,106.543 123.246,107.876 125.5,108.5C 125.833,109.167 126.167,109.833 126.5,110.5C 126.672,111.492 126.338,112.158 125.5,112.5C 122.36,111.359 119.027,111.192 115.5,112C 118.285,112.658 120.951,113.491 123.5,114.5C 123.167,115.167 122.833,115.833 122.5,116.5C 119.676,116.108 116.676,116.108 113.5,116.5C 111.369,115.686 109.036,115.186 106.5,115C 105.944,114.617 105.611,114.117 105.5,113.5C 102.663,111.598 99.3293,110.931 95.5,111.5C 95.5,108.167 95.5,104.833 95.5,101.5C 97.8333,101.5 100.167,101.5 102.5,101.5 Z"/></g>
<g><path style="opacity:1" fill="#37352a" d="M 126.5,110.5 C 126.167,109.833 125.833,109.167 125.5,108.5C 127.044,108.297 128.378,107.63 129.5,106.5C 134.571,107.688 134.738,109.354 130,111.5C 128.862,111.011 127.695,110.678 126.5,110.5 Z"/></g>
<g><path style="opacity:1" fill="#564c3b" d="M 158.5,115.5 C 156.611,114.62 154.611,114.62 152.5,115.5C 152.88,117.698 152.213,119.365 150.5,120.5C 149.833,120.167 149.167,119.833 148.5,119.5C 145.569,119.09 144.903,117.756 146.5,115.5C 147.478,115.189 148.145,114.522 148.5,113.5C 146.625,112.591 145.292,111.257 144.5,109.5C 147.578,108.609 150.078,109.609 152,112.5C 155.06,111.365 157.226,112.365 158.5,115.5 Z"/></g>
<g><path style="opacity:1" fill="#15151a" d="M 241.5,79.5 C 239.55,84.6834 238.216,90.0167 237.5,95.5C 233.857,103.096 231.19,111.096 229.5,119.5C 227.562,123.125 225.895,126.959 224.5,131C 221.13,129.338 217.463,128.171 213.5,127.5C 210.921,125.975 208.254,124.641 205.5,123.5C 208.005,119.848 211.005,119.515 214.5,122.5C 215.833,121.833 217.167,121.167 218.5,120.5C 219.753,117.743 221.587,115.409 224,113.5C 224.692,112.563 224.525,111.897 223.5,111.5C 223.215,109.712 223.548,108.045 224.5,106.5C 225.192,107.025 225.692,107.692 226,108.5C 227.367,104.3 227.867,99.9671 227.5,95.5C 228.5,95.5 229.5,95.5 230.5,95.5C 230.401,92.7628 230.735,90.0961 231.5,87.5C 233.39,87.7035 234.89,87.0368 236,85.5C 236.2,81.2467 236.7,77.08 237.5,73C 237.833,72.8333 238.167,72.6667 238.5,72.5C 238.938,75.2949 239.938,77.6283 241.5,79.5 Z"/></g>
<g><path style="opacity:1" fill="#5a3728" d="M 105.5,113.5 C 105.611,114.117 105.944,114.617 106.5,115C 109.036,115.186 111.369,115.686 113.5,116.5C 107.31,116.177 101.31,116.51 95.5,117.5C 93.5168,117.843 92.1834,117.176 91.5,115.5C 95.86,113.108 100.527,112.441 105.5,113.5 Z"/></g>
<g><path style="opacity:1" fill="#fbf7de" d="M 237.5,95.5 C 238.167,95.5 238.833,95.5 239.5,95.5C 239.5,100.833 239.5,106.167 239.5,111.5C 244.833,111.5 250.167,111.5 255.5,111.5C 255.5,112.833 255.5,114.167 255.5,115.5C 257.833,115.5 260.167,115.5 262.5,115.5C 262.5,117.5 262.5,119.5 262.5,121.5C 260.167,121.5 257.833,121.5 255.5,121.5C 255.5,123.5 255.5,125.5 255.5,127.5C 248.5,127.5 241.5,127.5 234.5,127.5C 234.719,126.325 234.386,125.325 233.5,124.5C 232.542,126.784 231.208,128.784 229.5,130.5C 230.281,127.283 230.281,123.617 229.5,119.5C 231.19,111.096 233.857,103.096 237.5,95.5 Z"/></g>
<g><path style="opacity:1" fill="#393028" d="M 125.5,112.5 C 126.953,112.929 128.619,113.096 130.5,113C 132.932,115.011 132.432,116.511 129,117.5C 126.752,117.105 124.918,116.105 123.5,114.5C 120.951,113.491 118.285,112.658 115.5,112C 119.027,111.192 122.36,111.359 125.5,112.5 Z"/></g>
<g><path style="opacity:1" fill="#592b29" d="M 67.5,112.5 C 67.5,114.5 67.5,116.5 67.5,118.5C 65.1783,120.412 62.5116,121.745 59.5,122.5C 59.5524,118.802 59.8857,115.135 60.5,111.5C 63.0593,111.198 65.3926,111.532 67.5,112.5 Z"/></g>
<g><path style="opacity:1" fill="#3e3a2a" d="M 135.5,114.5 C 137.25,115.473 138.75,116.807 140,118.5C 140.333,118.167 140.667,117.833 141,117.5C 143.058,118.229 144.891,119.229 146.5,120.5C 145.094,120.973 144.427,121.973 144.5,123.5C 143.167,123.5 141.833,123.5 140.5,123.5C 137.908,121.285 134.908,119.619 131.5,118.5C 132.409,116.625 133.743,115.292 135.5,114.5 Z"/></g>
<g><path style="opacity:1" fill="#51402c" d="M 165.5,116.5 C 162.616,119.467 160.283,119.134 158.5,115.5C 160.975,114.313 163.309,114.647 165.5,116.5 Z"/></g>
<g><path style="opacity:1" fill="#7e564b" d="M 91.5,115.5 C 92.1834,117.176 93.5168,117.843 95.5,117.5C 100.587,117.284 101.587,119.118 98.5,123C 94.9743,124.337 91.3076,124.837 87.5,124.5C 88.5969,121.314 89.9303,118.314 91.5,115.5 Z"/></g>
<g><path style="opacity:1" fill="#201815" d="M 122.5,116.5 C 122.938,116.435 123.272,116.601 123.5,117C 121.97,119.928 119.803,120.761 117,119.5C 115.598,120.645 114.431,121.978 113.5,123.5C 112.298,124.405 110.964,124.405 109.5,123.5C 108.473,122.152 107.14,121.652 105.5,122C 106.167,122.667 106.833,123.333 107.5,124C 105.782,124.346 104.115,124.846 102.5,125.5C 100.97,123.238 99.637,123.572 98.5,126.5C 97.5,126.5 96.5,126.5 95.5,126.5C 91.9359,126.688 88.6026,127.688 85.5,129.5C 85.1667,129.167 84.8333,128.833 84.5,128.5C 85.5207,127.099 86.5207,125.765 87.5,124.5C 91.3076,124.837 94.9743,124.337 98.5,123C 101.587,119.118 100.587,117.284 95.5,117.5C 101.31,116.51 107.31,116.177 113.5,116.5C 116.676,116.108 119.676,116.108 122.5,116.5 Z"/></g>
<g><path style="opacity:1" fill="#b3b09e" d="M 130.5,102.5 C 131.167,102.833 131.833,103.167 132.5,103.5C 132.196,104.15 131.863,104.817 131.5,105.5C 133.783,107.733 135.783,107.733 137.5,105.5C 138.791,105.263 139.791,105.596 140.5,106.5C 139.244,106.461 138.244,106.961 137.5,108C 139.733,109.829 142.067,110.329 144.5,109.5C 145.292,111.257 146.625,112.591 148.5,113.5C 148.145,114.522 147.478,115.189 146.5,115.5C 144.903,117.756 145.569,119.09 148.5,119.5C 148.158,120.338 147.492,120.672 146.5,120.5C 144.891,119.229 143.058,118.229 141,117.5C 140.667,117.833 140.333,118.167 140,118.5C 138.75,116.807 137.25,115.473 135.5,114.5C 133.743,115.292 132.409,116.625 131.5,118.5C 134.908,119.619 137.908,121.285 140.5,123.5C 139.041,123.433 137.708,123.766 136.5,124.5C 135.513,121.914 133.513,120.581 130.5,120.5C 127.269,116.551 124.269,116.717 121.5,121C 122.056,121.383 122.389,121.883 122.5,122.5C 119.349,123.32 116.349,123.654 113.5,123.5C 114.431,121.978 115.598,120.645 117,119.5C 119.803,120.761 121.97,119.928 123.5,117C 123.272,116.601 122.938,116.435 122.5,116.5C 122.833,115.833 123.167,115.167 123.5,114.5C 124.918,116.105 126.752,117.105 129,117.5C 132.432,116.511 132.932,115.011 130.5,113C 128.619,113.096 126.953,112.929 125.5,112.5C 126.338,112.158 126.672,111.492 126.5,110.5C 127.695,110.678 128.862,111.011 130,111.5C 134.738,109.354 134.571,107.688 129.5,106.5C 128.378,107.63 127.044,108.297 125.5,108.5C 125.953,107.542 126.619,106.708 127.5,106C 126.429,105.148 125.429,104.315 124.5,103.5C 126.06,103.519 127.56,103.852 129,104.5C 130.03,104.164 130.53,103.497 130.5,102.5 Z"/></g>
<g><path style="opacity:1" fill="#444333" d="M 146.5,115.5 C 143.905,117.774 141.238,117.607 138.5,115C 141.602,110.407 144.269,110.574 146.5,115.5 Z"/></g>
<g><path style="opacity:1" fill="#383525" d="M 135.5,114.5 C 134.571,113.685 133.571,112.852 132.5,112C 133.618,110.926 134.618,109.76 135.5,108.5C 136.192,109.025 136.692,109.692 137,110.5C 138.073,109.72 139.24,109.887 140.5,111C 139.211,112.802 137.544,113.969 135.5,114.5 Z"/></g>
<g><path style="opacity:1" fill="#504e36" d="M 130.5,120.5 C 129.143,121.685 127.643,122.685 126,123.5C 124.862,123.011 123.695,122.678 122.5,122.5C 122.389,121.883 122.056,121.383 121.5,121C 124.269,116.717 127.269,116.551 130.5,120.5 Z"/></g>
<g><path style="opacity:1" fill="#a88775" d="M 158.5,115.5 C 160.283,119.134 162.616,119.467 165.5,116.5C 166.167,116.833 166.833,117.167 167.5,117.5C 167.5,118.833 167.5,120.167 167.5,121.5C 169.5,121.833 171.5,122.167 173.5,122.5C 173.833,122.5 174.167,122.5 174.5,122.5C 174.866,123.695 175.699,124.361 177,124.5C 178.724,123.663 180.224,123.33 181.5,123.5C 182.167,123.5 182.5,123.833 182.5,124.5C 182.5,124.833 182.5,125.167 182.5,125.5C 180.901,125.232 179.568,125.566 178.5,126.5C 176.946,127.914 175.612,129.581 174.5,131.5C 174.167,131.167 173.833,130.833 173.5,130.5C 176.433,125.446 175.1,123.446 169.5,124.5C 165.918,126.417 163.585,125.417 162.5,121.5C 161.833,121.833 161.167,122.167 160.5,122.5C 159.673,120.838 158.507,119.505 157,118.5C 156.383,119.449 156.549,120.282 157.5,121C 156.177,121.816 155.511,122.983 155.5,124.5C 154.839,123.282 154.172,121.949 153.5,120.5C 152.583,121.127 151.583,121.461 150.5,121.5C 150.5,121.167 150.5,120.833 150.5,120.5C 152.213,119.365 152.88,117.698 152.5,115.5C 154.611,114.62 156.611,114.62 158.5,115.5 Z"/></g>
<g><path style="opacity:1" fill="#473d26" d="M 167.5,117.5 C 170.801,117.792 172.801,119.459 173.5,122.5C 171.5,122.167 169.5,121.833 167.5,121.5C 167.5,120.167 167.5,118.833 167.5,117.5 Z"/></g>
<g><path style="opacity:1" fill="#f0eed5" d="M 108.5,84.5 C 108.369,85.3764 108.702,86.0431 109.5,86.5C 113.113,87.8024 116.446,89.4691 119.5,91.5C 118.624,91.3691 117.957,91.7025 117.5,92.5C 125.982,96.5513 134.649,100.218 143.5,103.5C 144.167,103.5 144.833,103.5 145.5,103.5C 163.349,111.01 181.349,118.343 199.5,125.5C 201.685,125.296 203.685,124.63 205.5,123.5C 208.254,124.641 210.921,125.975 213.5,127.5C 210.636,127.064 208.303,127.897 206.5,130C 207.5,130.833 208.5,131.667 209.5,132.5C 209.376,133.107 209.043,133.44 208.5,133.5C 206.213,133.276 204.047,132.609 202,131.5C 200.401,132.071 199.234,133.071 198.5,134.5C 198.5,133.833 198.5,133.167 198.5,132.5C 199.598,131.603 199.598,130.77 198.5,130C 196.004,127.884 193.337,127.384 190.5,128.5C 189.01,125.108 186.343,123.774 182.5,124.5C 182.5,123.833 182.167,123.5 181.5,123.5C 179.891,122.229 178.058,121.229 176,120.5C 175.283,121.044 174.783,121.711 174.5,122.5C 174.167,122.5 173.833,122.5 173.5,122.5C 172.801,119.459 170.801,117.792 167.5,117.5C 166.833,117.167 166.167,116.833 165.5,116.5C 163.309,114.647 160.975,114.313 158.5,115.5C 157.226,112.365 155.06,111.365 152,112.5C 150.078,109.609 147.578,108.609 144.5,109.5C 143.965,107.554 142.632,106.554 140.5,106.5C 139.791,105.596 138.791,105.263 137.5,105.5C 136.22,104.069 134.553,103.402 132.5,103.5C 131.833,103.167 131.167,102.833 130.5,102.5C 128.786,101.262 126.786,100.595 124.5,100.5C 122.792,98.4876 120.792,98.1542 118.5,99.5C 118.5,97.5 117.5,96.5 115.5,96.5C 114.791,95.596 113.791,95.2627 112.5,95.5C 111.833,94.8333 111.167,94.1667 110.5,93.5C 108.83,92.129 108.164,90.629 108.5,89C 107.833,88.3333 107.167,88.3333 106.5,89C 107.696,89.6543 107.696,90.1543 106.5,90.5C 105.5,90.1667 104.833,89.5 104.5,88.5C 106.216,87.4513 107.549,86.118 108.5,84.5 Z"/></g>
<g><path style="opacity:1" fill="#514225" d="M 181.5,123.5 C 180.224,123.33 178.724,123.663 177,124.5C 175.699,124.361 174.866,123.695 174.5,122.5C 174.783,121.711 175.283,121.044 176,120.5C 178.058,121.229 179.891,122.229 181.5,123.5 Z"/></g>
<g><path style="opacity:1" fill="#544f3b" d="M 122.5,122.5 C 121.89,123.391 121.557,124.391 121.5,125.5C 118.211,127.876 115.544,127.209 113.5,123.5C 116.349,123.654 119.349,123.32 122.5,122.5 Z"/></g>
<g><path style="opacity:1" fill="#bdbaa5" d="M 130.5,120.5 C 129.833,122.167 129.167,123.833 128.5,125.5C 126.126,124.314 123.792,124.314 121.5,125.5C 121.557,124.391 121.89,123.391 122.5,122.5C 123.695,122.678 124.862,123.011 126,123.5C 127.643,122.685 129.143,121.685 130.5,120.5 Z"/></g>
<g><path style="opacity:1" fill="#514e3a" d="M 130.5,120.5 C 133.513,120.581 135.513,121.914 136.5,124.5C 134.149,126.744 131.482,127.077 128.5,125.5C 129.167,123.833 129.833,122.167 130.5,120.5 Z"/></g>
<g><path style="opacity:1" fill="#b9b19b" d="M 109.5,123.5 C 110.964,124.405 112.298,124.405 113.5,123.5C 115.544,127.209 118.211,127.876 121.5,125.5C 121.586,126.496 121.252,127.329 120.5,128C 121.571,128.852 122.571,129.685 123.5,130.5C 120.03,129.285 116.53,127.951 113,126.5C 111.019,127.65 109.186,128.984 107.5,130.5C 107.167,130.5 106.833,130.5 106.5,130.5C 107.81,128.852 109.143,127.186 110.5,125.5C 110.137,124.817 109.804,124.15 109.5,123.5 Z"/></g>
<g><path style="opacity:1" fill="#5b5543" d="M 128.5,125.5 C 128.5,126.5 128.5,127.5 128.5,128.5C 127.18,129.942 125.514,130.608 123.5,130.5C 122.571,129.685 121.571,128.852 120.5,128C 121.252,127.329 121.586,126.496 121.5,125.5C 123.792,124.314 126.126,124.314 128.5,125.5 Z"/></g>
<g><path style="opacity:1" fill="#4e462e" d="M 182.5,124.5 C 186.343,123.774 189.01,125.108 190.5,128.5C 188.612,129.275 186.612,129.275 184.5,128.5C 183.833,127.5 183.167,126.5 182.5,125.5C 182.5,125.167 182.5,124.833 182.5,124.5 Z"/></g>
<g><path style="opacity:1" fill="#5d5b47" d="M 109.5,123.5 C 109.804,124.15 110.137,124.817 110.5,125.5C 109.143,127.186 107.81,128.852 106.5,130.5C 103.55,129.692 100.883,128.358 98.5,126.5C 99.637,123.572 100.97,123.238 102.5,125.5C 104.115,124.846 105.782,124.346 107.5,124C 106.833,123.333 106.167,122.667 105.5,122C 107.14,121.652 108.473,122.152 109.5,123.5 Z"/></g>
<g><path style="opacity:1" fill="#484638" d="M 140.5,123.5 C 144.603,126.007 144.27,128.007 139.5,129.5C 138.151,129.154 136.817,128.821 135.5,128.5C 135.833,127.167 136.167,125.833 136.5,124.5C 137.708,123.766 139.041,123.433 140.5,123.5 Z"/></g>
<g><path style="opacity:1" fill="#b5b39c" d="M 136.5,124.5 C 136.167,125.833 135.833,127.167 135.5,128.5C 133.09,127.562 130.756,127.562 128.5,128.5C 128.5,127.5 128.5,126.5 128.5,125.5C 131.482,127.077 134.149,126.744 136.5,124.5 Z"/></g>
<g><path style="opacity:1" fill="#fbf2d7" d="M 262.5,121.5 C 262.5,130.5 262.5,139.5 262.5,148.5C 260.139,148.326 257.806,147.993 255.5,147.5C 255.5,146.167 255.5,144.833 255.5,143.5C 249.517,144.381 244.184,143.048 239.5,139.5C 236.197,138.56 232.864,137.727 229.5,137C 228.5,136.167 227.5,135.333 226.5,134.5C 227.524,133.148 228.524,131.815 229.5,130.5C 231.208,128.784 232.542,126.784 233.5,124.5C 234.386,125.325 234.719,126.325 234.5,127.5C 241.5,127.5 248.5,127.5 255.5,127.5C 255.5,125.5 255.5,123.5 255.5,121.5C 257.833,121.5 260.167,121.5 262.5,121.5 Z"/></g>
<g><path style="opacity:1" fill="#aa715e" d="M 70.5,98.5 C 71.8589,99.0065 72.8589,100.007 73.5,101.5C 74.451,100.674 75.451,100.508 76.5,101C 74.0174,103.264 74.0174,105.597 76.5,108C 74.2583,110.92 71.2583,112.42 67.5,112.5C 65.3926,111.532 63.0593,111.198 60.5,111.5C 59.8857,115.135 59.5524,118.802 59.5,122.5C 59.3398,124.199 59.5065,125.866 60,127.5C 63.9129,125.532 67.5796,123.199 71,120.5C 71.4618,124.252 72.6284,127.752 74.5,131C 71.921,132.076 70.2543,133.909 69.5,136.5C 66.8695,138.153 64.2028,139.819 61.5,141.5C 60.3036,138.457 58.4703,135.791 56,133.5C 54.0551,124.524 53.5551,115.524 54.5,106.5C 55.147,104.859 56.147,103.526 57.5,102.5C 60.2492,102.274 62.9159,102.607 65.5,103.5C 67.2131,103.121 68.2131,102.121 68.5,100.5C 68.5,99.8333 68.8333,99.5 69.5,99.5C 70.1667,99.5 70.5,99.1667 70.5,98.5 Z"/></g>
<g><path style="opacity:1" fill="#6c4133" d="M 155.5,124.5 C 155.855,127.067 156.521,129.567 157.5,132C 157.43,132.765 157.097,133.265 156.5,133.5C 155.5,131.5 154.5,129.5 153.5,127.5C 152.298,125.608 150.965,123.774 149.5,122C 149.728,121.601 150.062,121.435 150.5,121.5C 151.583,121.461 152.583,121.127 153.5,120.5C 154.172,121.949 154.839,123.282 155.5,124.5 Z"/></g>
<g><path style="opacity:1" fill="#484533" d="M 198.5,132.5 C 195.006,132.468 192.339,131.135 190.5,128.5C 193.337,127.384 196.004,127.884 198.5,130C 199.598,130.77 199.598,131.603 198.5,132.5 Z"/></g>
<g><path style="opacity:1" fill="#c1b7a9" d="M 140.5,123.5 C 141.833,123.5 143.167,123.5 144.5,123.5C 145.405,124.964 145.405,126.298 144.5,127.5C 141.599,129.876 141.932,131.709 145.5,133C 144.267,134.667 142.933,136.167 141.5,137.5C 140.833,137.5 140.5,137.167 140.5,136.5C 142.273,135.686 142.773,134.352 142,132.5C 140.042,131.048 138.042,130.715 136,131.5C 135.517,130.552 135.351,129.552 135.5,128.5C 136.817,128.821 138.151,129.154 139.5,129.5C 144.27,128.007 144.603,126.007 140.5,123.5 Z"/></g>
<g><path style="opacity:1" fill="#bcb8a6" d="M 184.5,128.5 C 186.612,129.275 188.612,129.275 190.5,128.5C 192.339,131.135 195.006,132.468 198.5,132.5C 198.5,133.167 198.5,133.833 198.5,134.5C 195.522,132.819 193.522,133.653 192.5,137C 194.126,138.819 196.126,140.152 198.5,141C 195.597,141.569 193.597,143.235 192.5,146C 193.308,146.308 193.975,146.808 194.5,147.5C 192.516,150.044 191.849,152.711 192.5,155.5C 191.078,155.291 189.745,154.791 188.5,154C 189.956,152.255 191.289,150.422 192.5,148.5C 192.023,147.522 191.357,146.689 190.5,146C 195.013,141.408 194.013,138.575 187.5,137.5C 186.16,138.867 184.827,140.2 183.5,141.5C 184.15,139.565 184.483,137.565 184.5,135.5C 186.441,135.869 188.275,136.536 190,137.5C 193.769,133.36 192.769,131.026 187,130.5C 185.699,130.639 184.866,131.305 184.5,132.5C 183.646,131.368 183.646,130.035 184.5,128.5 Z"/></g>
<g><path style="opacity:1" fill="#65483e" d="M 47.5,127.5 C 42.6152,127.929 39.9486,130.596 39.5,135.5C 41.1667,135.5 42.8333,135.5 44.5,135.5C 46.5881,143.163 47.9215,151.163 48.5,159.5C 49.3202,162.301 50.3202,164.968 51.5,167.5C 51.5,168.167 51.5,168.833 51.5,169.5C 50.2206,171.123 48.8872,172.79 47.5,174.5C 45.604,175.466 43.604,175.799 41.5,175.5C 40.1044,170.742 36.771,168.575 31.5,169C 34.5706,168.853 37.4039,168.02 40,166.5C 39.28,156.642 38.1133,146.975 36.5,137.5C 36.7238,134.145 37.0572,130.812 37.5,127.5C 41.0798,128.077 44.0798,127.077 46.5,124.5C 47.3857,125.325 47.719,126.325 47.5,127.5 Z"/></g>
<g><path style="opacity:1" fill="#684d39" d="M 169.5,124.5 C 175.1,123.446 176.433,125.446 173.5,130.5C 173.833,130.833 174.167,131.167 174.5,131.5C 175.612,129.581 176.946,127.914 178.5,126.5C 178.938,126.435 179.272,126.601 179.5,127C 176.518,129.191 176.185,131.524 178.5,134C 177.034,134.635 175.7,135.469 174.5,136.5C 173.712,135.23 172.712,134.23 171.5,133.5C 170.851,131.523 170.851,129.69 171.5,128C 171.192,126.541 170.525,125.374 169.5,124.5 Z"/></g>
<g><path style="opacity:1" fill="#69624f" d="M 123.5,130.5 C 126.293,133.427 127.96,132.76 128.5,128.5C 130.756,127.562 133.09,127.562 135.5,128.5C 135.351,129.552 135.517,130.552 136,131.5C 138.042,130.715 140.042,131.048 142,132.5C 142.773,134.352 142.273,135.686 140.5,136.5C 136.063,134.928 135.063,135.928 137.5,139.5C 134.876,140.076 134.209,141.41 135.5,143.5C 127.5,139.833 119.5,136.167 111.5,132.5C 109.847,132.34 108.514,131.674 107.5,130.5C 109.186,128.984 111.019,127.65 113,126.5C 116.53,127.951 120.03,129.285 123.5,130.5 Z"/></g>
<g><path style="opacity:1" fill="#c7c2af" d="M 128.5,128.5 C 127.96,132.76 126.293,133.427 123.5,130.5C 125.514,130.608 127.18,129.942 128.5,128.5 Z"/></g>
<g><path style="opacity:1" fill="#3e382c" d="M 184.5,135.5 C 183.167,134.5 183.167,133.5 184.5,132.5C 184.866,131.305 185.699,130.639 187,130.5C 192.769,131.026 193.769,133.36 190,137.5C 188.275,136.536 186.441,135.869 184.5,135.5 Z"/></g>
<g><path style="opacity:1" fill="#443f33" d="M 208.5,133.5 C 204.703,140.707 201.037,148.04 197.5,155.5C 195.997,156.052 194.331,156.052 192.5,155.5C 191.849,152.711 192.516,150.044 194.5,147.5C 193.975,146.808 193.308,146.308 192.5,146C 193.597,143.235 195.597,141.569 198.5,141C 196.126,140.152 194.126,138.819 192.5,137C 193.522,133.653 195.522,132.819 198.5,134.5C 199.234,133.071 200.401,132.071 202,131.5C 204.047,132.609 206.213,133.276 208.5,133.5 Z"/></g>
<g><path style="opacity:1" fill="#3a3622" d="M 111.5,132.5 C 119.5,136.167 127.5,139.833 135.5,143.5C 135.5,144.167 135.5,144.833 135.5,145.5C 127.146,141.659 119.146,137.326 111.5,132.5 Z"/></g>
<g><path style="opacity:1" fill="#54463b" d="M 144.5,127.5 C 145.117,127.611 145.617,127.944 146,128.5C 147.644,132.22 148.81,136.053 149.5,140C 148.975,140.692 148.308,141.192 147.5,141.5C 144.967,140.696 142.967,139.363 141.5,137.5C 142.933,136.167 144.267,134.667 145.5,133C 141.932,131.709 141.599,129.876 144.5,127.5 Z"/></g>
<g><path style="opacity:1" fill="#97705d" d="M 148.5,119.5 C 149.167,119.833 149.833,120.167 150.5,120.5C 150.5,120.833 150.5,121.167 150.5,121.5C 150.062,121.435 149.728,121.601 149.5,122C 150.965,123.774 152.298,125.608 153.5,127.5C 152.5,127.5 151.5,127.5 150.5,127.5C 151.285,131.891 152.285,136.391 153.5,141C 152.956,143.4 152.289,145.733 151.5,148C 152.214,149.343 151.88,150.676 150.5,152C 151.056,152.383 151.389,152.883 151.5,153.5C 150.504,153.414 149.671,153.748 149,154.5C 147.98,153.109 147.147,151.609 146.5,150C 149.827,148.209 150.16,146.043 147.5,143.5C 146.402,145.632 145.402,147.798 144.5,150C 145.566,151.159 145.233,151.992 143.5,152.5C 141.643,149.296 139.643,146.129 137.5,143C 138.171,142.014 138.171,140.847 137.5,139.5C 135.063,135.928 136.063,134.928 140.5,136.5C 140.5,137.167 140.833,137.5 141.5,137.5C 142.967,139.363 144.967,140.696 147.5,141.5C 148.308,141.192 148.975,140.692 149.5,140C 148.81,136.053 147.644,132.22 146,128.5C 145.617,127.944 145.117,127.611 144.5,127.5C 145.405,126.298 145.405,124.964 144.5,123.5C 144.427,121.973 145.094,120.973 146.5,120.5C 147.492,120.672 148.158,120.338 148.5,119.5 Z"/></g>
<g><path style="opacity:1" fill="#faf8d4" d="M 95.5,127.5 C 100.005,130.586 104.672,133.42 109.5,136C 107.189,135.845 104.856,135.845 102.5,136C 94.9669,144.364 87.3002,152.531 79.5,160.5C 77.9867,159.691 76.3201,159.524 74.5,160C 72.7866,158.622 71.4533,156.955 70.5,155C 56.7941,152.473 55.9608,147.973 68,141.5C 68.4828,140.552 68.6495,139.552 68.5,138.5C 71.0336,138.741 72.7002,137.741 73.5,135.5C 80.5846,132.213 87.9179,129.546 95.5,127.5 Z"/></g>
<g><path style="opacity:1" fill="#815c4d" d="M 54.5,106.5 C 53.5551,115.524 54.0551,124.524 56,133.5C 58.4703,135.791 60.3036,138.457 61.5,141.5C 58.4642,144.243 56.4642,147.576 55.5,151.5C 53.7773,153.78 53.1107,156.447 53.5,159.5C 53.4349,162.428 52.7682,165.095 51.5,167.5C 50.3202,164.968 49.3202,162.301 48.5,159.5C 47.9215,151.163 46.5881,143.163 44.5,135.5C 42.8333,135.5 41.1667,135.5 39.5,135.5C 39.9486,130.596 42.6152,127.929 47.5,127.5C 49.7934,129.665 51.6267,132.331 53,135.5C 54,136.5 55,137.5 56,138.5C 56.1667,138.167 56.3333,137.833 56.5,137.5C 54.7273,131.27 52.7273,125.104 50.5,119C 51.1227,115.519 51.6227,112.019 52,108.5C 52.7083,107.619 53.5416,106.953 54.5,106.5 Z"/></g>
<g><path style="opacity:1" fill="#fcfbd4" d="M 146.5,179.5 C 140.167,179.5 133.833,179.5 127.5,179.5C 127.5,177.167 127.5,174.833 127.5,172.5C 123.737,171.748 120.404,170.081 117.5,167.5C 116.841,164.841 115.174,163.174 112.5,162.5C 111.614,161.675 111.281,160.675 111.5,159.5C 108.833,159.5 106.167,159.5 103.5,159.5C 103.762,158.022 103.429,156.689 102.5,155.5C 101.167,154.833 100.167,153.833 99.5,152.5C 98.3112,151.571 96.9778,151.238 95.5,151.5C 95.7373,150.209 95.404,149.209 94.5,148.5C 97.4289,144.394 100.596,140.394 104,136.5C 114.211,142.336 124.711,147.836 135.5,153C 136.763,157.506 137.596,162.339 138,167.5C 142.565,170.305 145.399,174.305 146.5,179.5 Z"/></g>
<g><path style="opacity:1" fill="#f8e7cd" d="M 255.5,154.5 C 255.859,156.371 256.859,157.871 258.5,159C 256.003,159.412 254.003,160.578 252.5,162.5C 256.34,163.86 256.34,165.36 252.5,167C 253.5,167.333 254.5,167.667 255.5,168C 252.5,168.667 249.5,168.667 246.5,168C 247.563,166.812 248.897,166.312 250.5,166.5C 250.5,165.5 250.5,164.5 250.5,163.5C 246.759,162.599 244.759,163.932 244.5,167.5C 242.833,167.5 241.167,167.5 239.5,167.5C 239.5,164.833 239.5,162.167 239.5,159.5C 232.934,158.945 226.601,159.779 220.5,162C 220.216,168.162 217.216,172.995 211.5,176.5C 210.873,177.417 210.539,178.417 210.5,179.5C 209.5,179.5 208.5,179.5 207.5,179.5C 207.336,176.813 207.503,174.146 208,171.5C 209.84,169.662 211.507,167.662 213,165.5C 214.421,164.079 216.255,162.245 218.5,160C 217.552,159.517 216.552,159.351 215.5,159.5C 216.351,154.799 218.518,150.799 222,147.5C 222.333,148.167 222.667,148.833 223,149.5C 222.914,145.953 224.08,142.953 226.5,140.5C 236.5,143.768 246.167,147.435 255.5,151.5C 255.5,152.5 255.5,153.5 255.5,154.5 Z"/></g>
<g><path style="opacity:1" fill="#1f1c23" d="M 34.5,127.5 C 33.4286,135.526 32.0953,143.526 30.5,151.5C 26.9803,154.694 24.3136,158.528 22.5,163C 18.1056,162.503 15.7723,164.336 15.5,168.5C 19.1667,169.167 22.8333,169.833 26.5,170.5C 17.4685,172.104 8.46851,171.437 -0.5,168.5C -0.5,163.5 -0.5,158.5 -0.5,153.5C 0.833333,153.5 2.16667,153.5 3.5,153.5C 3.68701,151.436 4.18701,149.436 5,147.5C 6.04373,148.623 6.71039,149.956 7,151.5C 10.5813,147.248 14.748,143.748 19.5,141C 20.6661,137.743 22.9995,135.91 26.5,135.5C 27.48,132.914 27.8134,130.247 27.5,127.5C 29.8333,127.5 32.1667,127.5 34.5,127.5 Z"/></g>
<g><path style="opacity:1" fill="#4c4633" d="M 192.5,155.5 C 196.149,158.037 195.982,160.704 192,163.5C 190.2,162.68 188.366,162.014 186.5,161.5C 185.683,159.169 185.016,156.669 184.5,154C 184.905,153.055 185.572,152.388 186.5,152C 184.765,150.818 183.765,149.151 183.5,147C 183.613,145.72 184.28,144.887 185.5,144.5C 186.768,145.428 188.101,145.595 189.5,145C 187.121,144.284 185.121,143.117 183.5,141.5C 184.827,140.2 186.16,138.867 187.5,137.5C 194.013,138.575 195.013,141.408 190.5,146C 191.357,146.689 192.023,147.522 192.5,148.5C 191.289,150.422 189.956,152.255 188.5,154C 189.745,154.791 191.078,155.291 192.5,155.5 Z"/></g>
<g><path style="opacity:1" fill="#dfd5bf" d="M 229.5,119.5 C 230.281,123.617 230.281,127.283 229.5,130.5C 228.524,131.815 227.524,133.148 226.5,134.5C 227.5,135.333 228.5,136.167 229.5,137C 232.864,137.727 236.197,138.56 239.5,139.5C 244.184,143.048 249.517,144.381 255.5,143.5C 255.5,144.833 255.5,146.167 255.5,147.5C 257.806,147.993 260.139,148.326 262.5,148.5C 262.5,150.5 262.5,152.5 262.5,154.5C 260.167,154.5 257.833,154.5 255.5,154.5C 255.5,153.5 255.5,152.5 255.5,151.5C 246.167,147.435 236.5,143.768 226.5,140.5C 224.08,142.953 222.914,145.953 223,149.5C 222.667,148.833 222.333,148.167 222,147.5C 218.518,150.799 216.351,154.799 215.5,159.5C 216.552,159.351 217.552,159.517 218.5,160C 216.255,162.245 214.421,164.079 213,165.5C 211.507,167.662 209.84,169.662 208,171.5C 207.503,174.146 207.336,176.813 207.5,179.5C 205.833,179.5 204.167,179.5 202.5,179.5C 209.697,163.905 216.697,148.238 223.5,132.5C 219.485,132.141 216.152,130.475 213.5,127.5C 217.463,128.171 221.13,129.338 224.5,131C 225.895,126.959 227.562,123.125 229.5,119.5 Z"/></g>
<g><path style="opacity:1" fill="#4b3532" d="M 57.5,102.5 C 56.147,103.526 55.147,104.859 54.5,106.5C 53.5416,106.953 52.7083,107.619 52,108.5C 51.6227,112.019 51.1227,115.519 50.5,119C 52.7273,125.104 54.7273,131.27 56.5,137.5C 56.3333,137.833 56.1667,138.167 56,138.5C 55,137.5 54,136.5 53,135.5C 51.6267,132.331 49.7934,129.665 47.5,127.5C 47.719,126.325 47.3857,125.325 46.5,124.5C 44.0798,127.077 41.0798,128.077 37.5,127.5C 37.0572,130.812 36.7238,134.145 36.5,137.5C 38.1133,146.975 39.28,156.642 40,166.5C 37.4039,168.02 34.5706,168.853 31.5,169C 36.771,168.575 40.1044,170.742 41.5,175.5C 38.6538,174.822 36.1538,173.488 34,171.5C 31.5379,170.841 29.0379,170.507 26.5,170.5C 22.8333,169.833 19.1667,169.167 15.5,168.5C 15.7723,164.336 18.1056,162.503 22.5,163C 24.3136,158.528 26.9803,154.694 30.5,151.5C 32.0953,143.526 33.4286,135.526 34.5,127.5C 37.3473,123.462 40.8473,120.129 45,117.5C 45.772,117.645 46.4387,117.978 47,118.5C 47.5052,114.498 48.8385,110.831 51,107.5C 52.7895,105.135 54.9561,103.468 57.5,102.5 Z"/></g>
<g><path style="opacity:1" fill="#a66d4b" d="M 169.5,124.5 C 170.525,125.374 171.192,126.541 171.5,128C 170.851,129.69 170.851,131.523 171.5,133.5C 171.808,135.139 171.808,136.972 171.5,139C 172.646,139.645 173.646,140.478 174.5,141.5C 175.711,140.726 175.711,139.893 174.5,139C 175.893,136.317 177.226,136.15 178.5,138.5C 179.192,137.975 179.692,137.308 180,136.5C 181.82,139.704 181.653,142.704 179.5,145.5C 180.739,152.935 182.406,160.269 184.5,167.5C 184.379,168.894 184.046,170.228 183.5,171.5C 185.623,173.745 186.623,176.412 186.5,179.5C 179.833,179.5 173.167,179.5 166.5,179.5C 165.864,176.894 165.864,174.394 166.5,172C 164.493,168.162 163.493,163.995 163.5,159.5C 162.167,159.5 160.833,159.5 159.5,159.5C 159.928,155.725 159.261,152.225 157.5,149C 158.856,147.433 159.523,145.6 159.5,143.5C 158.5,143.5 157.5,143.5 156.5,143.5C 156.106,140.304 156.106,136.97 156.5,133.5C 157.097,133.265 157.43,132.765 157.5,132C 156.521,129.567 155.855,127.067 155.5,124.5C 155.511,122.983 156.177,121.816 157.5,121C 156.549,120.282 156.383,119.449 157,118.5C 158.507,119.505 159.673,120.838 160.5,122.5C 161.167,122.167 161.833,121.833 162.5,121.5C 163.585,125.417 165.918,126.417 169.5,124.5 Z"/></g>
<g><path style="opacity:1" fill="#fcf5d0" d="M 94.5,148.5 C 95.404,149.209 95.7373,150.209 95.5,151.5C 96.9778,151.238 98.3112,151.571 99.5,152.5C 100.167,153.833 101.167,154.833 102.5,155.5C 103.429,156.689 103.762,158.022 103.5,159.5C 106.167,159.5 108.833,159.5 111.5,159.5C 111.281,160.675 111.614,161.675 112.5,162.5C 115.174,163.174 116.841,164.841 117.5,167.5C 120.404,170.081 123.737,171.748 127.5,172.5C 127.5,174.833 127.5,177.167 127.5,179.5C 119.833,179.5 112.167,179.5 104.5,179.5C 105.791,178.527 105.791,177.527 104.5,176.5C 106.743,175.526 109.076,175.192 111.5,175.5C 111.5,174.5 111.5,173.5 111.5,172.5C 108.348,173.041 105.848,172.041 104,169.5C 96.637,170.617 93.8037,167.284 95.5,159.5C 91.5,159.5 87.5,159.5 83.5,159.5C 86.188,154.812 89.8547,151.145 94.5,148.5 Z"/></g>
<g><path style="opacity:1" fill="#9b674f" d="M 153.5,127.5 C 154.5,129.5 155.5,131.5 156.5,133.5C 156.106,136.97 156.106,140.304 156.5,143.5C 157.5,143.5 158.5,143.5 159.5,143.5C 159.523,145.6 158.856,147.433 157.5,149C 159.261,152.225 159.928,155.725 159.5,159.5C 160.833,159.5 162.167,159.5 163.5,159.5C 163.493,163.995 164.493,168.162 166.5,172C 165.864,174.394 165.864,176.894 166.5,179.5C 165.5,179.5 164.5,179.5 163.5,179.5C 163.494,174.785 162.994,170.118 162,165.5C 160.354,163.403 158.354,161.736 156,160.5C 155.062,157.743 153.562,155.41 151.5,153.5C 151.389,152.883 151.056,152.383 150.5,152C 151.88,150.676 152.214,149.343 151.5,148C 152.289,145.733 152.956,143.4 153.5,141C 152.285,136.391 151.285,131.891 150.5,127.5C 151.5,127.5 152.5,127.5 153.5,127.5 Z"/></g>
<g><path style="opacity:1" fill="#e4e0be" d="M 95.5,127.5 C 95.5,127.167 95.5,126.833 95.5,126.5C 96.5,126.5 97.5,126.5 98.5,126.5C 100.883,128.358 103.55,129.692 106.5,130.5C 106.833,130.5 107.167,130.5 107.5,130.5C 108.514,131.674 109.847,132.34 111.5,132.5C 119.146,137.326 127.146,141.659 135.5,145.5C 135.586,146.496 135.252,147.329 134.5,148C 138.731,153.672 141.231,160.172 142,167.5C 145.545,170.872 148.045,174.872 149.5,179.5C 148.5,179.5 147.5,179.5 146.5,179.5C 145.399,174.305 142.565,170.305 138,167.5C 137.596,162.339 136.763,157.506 135.5,153C 124.711,147.836 114.211,142.336 104,136.5C 100.596,140.394 97.4289,144.394 94.5,148.5C 89.8547,151.145 86.188,154.812 83.5,159.5C 82.5255,160.635 81.3588,161.635 80,162.5C 79.5357,161.906 79.369,161.239 79.5,160.5C 87.3002,152.531 94.9669,144.364 102.5,136C 104.856,135.845 107.189,135.845 109.5,136C 104.672,133.42 100.005,130.586 95.5,127.5 Z"/></g>
<g><path style="opacity:1" fill="#9d7456" d="M 178.5,126.5 C 179.568,125.566 180.901,125.232 182.5,125.5C 183.167,126.5 183.833,127.5 184.5,128.5C 183.646,130.035 183.646,131.368 184.5,132.5C 183.167,133.5 183.167,134.5 184.5,135.5C 184.483,137.565 184.15,139.565 183.5,141.5C 185.121,143.117 187.121,144.284 189.5,145C 188.101,145.595 186.768,145.428 185.5,144.5C 184.28,144.887 183.613,145.72 183.5,147C 183.765,149.151 184.765,150.818 186.5,152C 185.572,152.388 184.905,153.055 184.5,154C 185.016,156.669 185.683,159.169 186.5,161.5C 186.016,164.798 187.016,167.464 189.5,169.5C 189.061,171.104 188.394,172.604 187.5,174C 188.233,175.766 188.567,177.599 188.5,179.5C 187.833,179.5 187.167,179.5 186.5,179.5C 186.623,176.412 185.623,173.745 183.5,171.5C 184.046,170.228 184.379,168.894 184.5,167.5C 182.406,160.269 180.739,152.935 179.5,145.5C 181.653,142.704 181.82,139.704 180,136.5C 179.692,137.308 179.192,137.975 178.5,138.5C 177.226,136.15 175.893,136.317 174.5,139C 175.711,139.893 175.711,140.726 174.5,141.5C 173.646,140.478 172.646,139.645 171.5,139C 171.808,136.972 171.808,135.139 171.5,133.5C 172.712,134.23 173.712,135.23 174.5,136.5C 175.7,135.469 177.034,134.635 178.5,134C 176.185,131.524 176.518,129.191 179.5,127C 179.272,126.601 178.938,126.435 178.5,126.5 Z"/></g>
<g><path style="opacity:1" fill="#f9f7cf" d="M 213.5,127.5 C 216.152,130.475 219.485,132.141 223.5,132.5C 216.697,148.238 209.697,163.905 202.5,179.5C 197.833,179.5 193.167,179.5 188.5,179.5C 188.567,177.599 188.233,175.766 187.5,174C 188.394,172.604 189.061,171.104 189.5,169.5C 187.016,167.464 186.016,164.798 186.5,161.5C 188.366,162.014 190.2,162.68 192,163.5C 195.982,160.704 196.149,158.037 192.5,155.5C 194.331,156.052 195.997,156.052 197.5,155.5C 201.037,148.04 204.703,140.707 208.5,133.5C 209.043,133.44 209.376,133.107 209.5,132.5C 208.5,131.667 207.5,130.833 206.5,130C 208.303,127.897 210.636,127.064 213.5,127.5 Z"/></g>
<g><path style="opacity:1" fill="#fbebce" d="M 239.5,167.5 C 239.5,170.167 239.5,172.833 239.5,175.5C 237.143,175.337 234.81,175.503 232.5,176C 233.305,177.113 233.972,178.279 234.5,179.5C 226.5,179.5 218.5,179.5 210.5,179.5C 210.539,178.417 210.873,177.417 211.5,176.5C 217.216,172.995 220.216,168.162 220.5,162C 226.601,159.779 232.934,158.945 239.5,159.5C 239.5,162.167 239.5,164.833 239.5,167.5 Z"/></g>
<g><path style="opacity:1" fill="#f8e8ce" d="M 255.5,154.5 C 257.833,154.5 260.167,154.5 262.5,154.5C 262.5,162.833 262.5,171.167 262.5,179.5C 253.167,179.5 243.833,179.5 234.5,179.5C 233.972,178.279 233.305,177.113 232.5,176C 234.81,175.503 237.143,175.337 239.5,175.5C 239.5,172.833 239.5,170.167 239.5,167.5C 241.167,167.5 242.833,167.5 244.5,167.5C 244.759,163.932 246.759,162.599 250.5,163.5C 250.5,164.5 250.5,165.5 250.5,166.5C 248.897,166.312 247.563,166.812 246.5,168C 249.5,168.667 252.5,168.667 255.5,168C 254.5,167.667 253.5,167.333 252.5,167C 256.34,165.36 256.34,163.86 252.5,162.5C 254.003,160.578 256.003,159.412 258.5,159C 256.859,157.871 255.859,156.371 255.5,154.5 Z"/></g>
<g><path style="opacity:1" fill="#f8edcf" d="M 73.5,135.5 C 72.7002,137.741 71.0336,138.741 68.5,138.5C 68.6495,139.552 68.4828,140.552 68,141.5C 55.9608,147.973 56.7941,152.473 70.5,155C 71.4533,156.955 72.7866,158.622 74.5,160C 76.3201,159.524 77.9867,159.691 79.5,160.5C 79.369,161.239 79.5357,161.906 80,162.5C 81.3588,161.635 82.5255,160.635 83.5,159.5C 87.5,159.5 91.5,159.5 95.5,159.5C 93.8037,167.284 96.637,170.617 104,169.5C 105.848,172.041 108.348,173.041 111.5,172.5C 111.5,173.5 111.5,174.5 111.5,175.5C 109.076,175.192 106.743,175.526 104.5,176.5C 105.791,177.527 105.791,178.527 104.5,179.5C 103.167,179.5 101.833,179.5 100.5,179.5C 96.1275,174.976 90.7942,171.976 84.5,170.5C 81.0657,167.719 77.3991,165.386 73.5,163.5C 68.0492,158.723 62.0492,154.723 55.5,151.5C 56.4642,147.576 58.4642,144.243 61.5,141.5C 64.2028,139.819 66.8695,138.153 69.5,136.5C 70.8333,136.167 72.1667,135.833 73.5,135.5 Z"/></g>
<g><path style="opacity:1" fill="#694e46" d="M 137.5,139.5 C 138.171,140.847 138.171,142.014 137.5,143C 139.643,146.129 141.643,149.296 143.5,152.5C 145.297,154.434 146.297,156.767 146.5,159.5C 148.288,159.215 149.955,159.548 151.5,160.5C 152.859,162.692 154.692,164.359 157,165.5C 157.333,166.833 157.667,168.167 158,169.5C 158.333,169.167 158.667,168.833 159,168.5C 159.499,172.152 159.665,175.818 159.5,179.5C 158.833,179.5 158.167,179.5 157.5,179.5C 157.359,173.142 154.359,169.309 148.5,168C 149.233,172.07 150.566,175.903 152.5,179.5C 151.5,179.5 150.5,179.5 149.5,179.5C 148.045,174.872 145.545,170.872 142,167.5C 141.231,160.172 138.731,153.672 134.5,148C 135.252,147.329 135.586,146.496 135.5,145.5C 135.5,144.833 135.5,144.167 135.5,143.5C 134.209,141.41 134.876,140.076 137.5,139.5 Z"/></g>
<g><path style="opacity:1" fill="#825948" d="M 151.5,153.5 C 153.562,155.41 155.062,157.743 156,160.5C 158.354,161.736 160.354,163.403 162,165.5C 162.994,170.118 163.494,174.785 163.5,179.5C 162.167,179.5 160.833,179.5 159.5,179.5C 159.665,175.818 159.499,172.152 159,168.5C 158.667,168.833 158.333,169.167 158,169.5C 157.667,168.167 157.333,166.833 157,165.5C 154.692,164.359 152.859,162.692 151.5,160.5C 149.955,159.548 148.288,159.215 146.5,159.5C 146.297,156.767 145.297,154.434 143.5,152.5C 145.233,151.992 145.566,151.159 144.5,150C 145.402,147.798 146.402,145.632 147.5,143.5C 150.16,146.043 149.827,148.209 146.5,150C 147.147,151.609 147.98,153.109 149,154.5C 149.671,153.748 150.504,153.414 151.5,153.5 Z"/></g>
<g><path style="opacity:1" fill="#908a8a" d="M 55.5,151.5 C 62.0492,154.723 68.0492,158.723 73.5,163.5C 71.8002,163.374 70.3002,162.707 69,161.5C 67.2874,162.137 67.1207,163.137 68.5,164.5C 73.7336,168.249 79.0669,171.749 84.5,175C 82.8659,175.494 81.1992,175.66 79.5,175.5C 70.8636,170.179 62.1969,164.845 53.5,159.5C 53.1107,156.447 53.7773,153.78 55.5,151.5 Z"/></g>
<g><path style="opacity:1" fill="#efdec7" d="M 53.5,159.5 C 62.1969,164.845 70.8636,170.179 79.5,175.5C 79.7329,177.062 80.3995,178.395 81.5,179.5C 75.5,179.5 69.5,179.5 63.5,179.5C 60.723,178.186 57.723,177.186 54.5,176.5C 52.6726,174.513 51.6726,172.179 51.5,169.5C 51.5,168.833 51.5,168.167 51.5,167.5C 52.7682,165.095 53.4349,162.428 53.5,159.5 Z"/></g>
<g><path style="opacity:1" fill="#4b3a3f" d="M 157.5,179.5 C 155.833,179.5 154.167,179.5 152.5,179.5C 150.566,175.903 149.233,172.07 148.5,168C 154.359,169.309 157.359,173.142 157.5,179.5 Z"/></g>
<g><path style="opacity:1" fill="#777470" d="M 73.5,163.5 C 77.3991,165.386 81.0657,167.719 84.5,170.5C 90.7942,171.976 96.1275,174.976 100.5,179.5C 94.1667,179.5 87.8333,179.5 81.5,179.5C 80.3995,178.395 79.7329,177.062 79.5,175.5C 81.1992,175.66 82.8659,175.494 84.5,175C 79.0669,171.749 73.7336,168.249 68.5,164.5C 67.1207,163.137 67.2874,162.137 69,161.5C 70.3002,162.707 71.8002,163.374 73.5,163.5 Z"/></g>
<g><path style="opacity:1" fill="#2a304a" d="M -0.5,168.5 C 8.46851,171.437 17.4685,172.104 26.5,170.5C 29.0379,170.507 31.5379,170.841 34,171.5C 36.1538,173.488 38.6538,174.822 41.5,175.5C 41.5,176.833 41.5,178.167 41.5,179.5C 32.5,179.5 23.5,179.5 14.5,179.5C 9.94428,177.558 4.94428,176.892 -0.5,177.5C -0.5,174.5 -0.5,171.5 -0.5,168.5 Z"/></g>
<g><path style="opacity:1" fill="#4c4651" d="M 51.5,169.5 C 51.6726,172.179 52.6726,174.513 54.5,176.5C 57.723,177.186 60.723,178.186 63.5,179.5C 56.1667,179.5 48.8333,179.5 41.5,179.5C 41.5,178.167 41.5,176.833 41.5,175.5C 43.604,175.799 45.604,175.466 47.5,174.5C 48.8872,172.79 50.2206,171.123 51.5,169.5 Z"/></g>
<g><path style="opacity:1" fill="#868496" d="M -0.5,177.5 C 4.94428,176.892 9.94428,177.558 14.5,179.5C 9.5,179.5 4.5,179.5 -0.5,179.5C -0.5,178.833 -0.5,178.167 -0.5,177.5 Z"/></g>
</svg>
